/* XPM */
static char *a0aa9154ed6a439dc8c7366b7a8a2e70kE4ekiaM73KWCKlX[] = {
/* columns rows colors chars-per-pixel */
"40 40 222 2 ",
"   c #325802",
".  c #3A6206",
"X  c #3D780D",
"o  c #4A570A",
"O  c #555D0F",
"+  c #585D13",
"@  c #4A660F",
"#  c #51650D",
"$  c #437C0D",
"%  c #4C6712",
"&  c #536414",
"*  c #5A6517",
"=  c #536C15",
"-  c #556B19",
";  c #5D6C1B",
":  c #417410",
">  c #4C7214",
",  c #457C14",
"<  c #4A7C15",
"1  c #4B7A18",
"2  c #587817",
"3  c #54731B",
"4  c #537C1B",
"5  c #5A7B1D",
"6  c #66651A",
"7  c #646C1C",
"8  c #72691C",
"9  c #69791B",
"0  c #7A781A",
"q  c #5F6F22",
"w  c #5C7522",
"e  c #577A23",
"r  c #5B7D23",
"t  c #676A21",
"y  c #796B25",
"u  c #677725",
"i  c #637A23",
"p  c #6B7A23",
"a  c #757C2B",
"s  c #F20E10",
"d  c #EF1F12",
"f  c #F11311",
"g  c #F11C14",
"h  c #F12316",
"j  c #F12D19",
"k  c #F2321B",
"l  c #F23C1C",
"z  c #867319",
"x  c #99741A",
"c  c #AC6D1D",
"v  c #BA6B1D",
"b  c #A7721D",
"n  c #B1751F",
"m  c #877629",
"M  c #87702F",
"N  c #967623",
"B  c #A96F21",
"V  c #B96F23",
"C  c #A87727",
"Z  c #EE4918",
"A  c #F1451F",
"S  c #EC571B",
"D  c #F0551F",
"F  c #C6671C",
"G  c #CA661B",
"H  c #C5691C",
"J  c #CD6A1B",
"K  c #D26D1B",
"L  c #DE6D1C",
"P  c #D4721C",
"I  c #DB741C",
"U  c #D67C1B",
"Y  c #DF791D",
"T  c #EF611C",
"R  c #EA761E",
"E  c #E47D1D",
"W  c #F24620",
"Q  c #F24C22",
"!  c #F1402A",
"~  c #F25324",
"^  c #F25C26",
"/  c #F25228",
"(  c #CC6C24",
")  c #CF712C",
"_  c #CF7E3C",
"`  c #EF6421",
"'  c #F36027",
"]  c #F26329",
"[  c #F36D2C",
"{  c #F3732D",
"}  c #F47D31",
"|  c #3E850F",
" . c #3E8510",
".. c #3E9414",
"X. c #50830E",
"o. c #448313",
"O. c #4A8315",
"+. c #438A13",
"@. c #498B16",
"#. c #46871D",
"$. c #4C831A",
"%. c #448B1A",
"&. c #4D8C1C",
"*. c #53841D",
"=. c #598718",
"-. c #538A1D",
";. c #429315",
":. c #459416",
">. c #419916",
",. c #4B921D",
"<. c #439C19",
"1. c #559119",
"2. c #668818",
"3. c #798318",
"4. c #548521",
"5. c #5B8324",
"6. c #548B23",
"7. c #5B8B25",
"8. c #5A8228",
"9. c #5D8C29",
"0. c #539224",
"q. c #59972B",
"w. c #638423",
"e. c #658925",
"r. c #6A8C24",
"t. c #638C2B",
"y. c #698D2C",
"u. c #758829",
"i. c #66952A",
"p. c #7C9124",
"a. c #77952C",
"s. c #659D33",
"d. c #75A23C",
"f. c #7F9E40",
"g. c #88811C",
"h. c #8C9E1D",
"j. c #A79A1B",
"k. c #928D26",
"l. c #889827",
"z. c #96952B",
"x. c #828233",
"c. c #879738",
"v. c #959932",
"b. c #B9982F",
"n. c #A29B39",
"m. c #BA9E39",
"M. c #B2A730",
"N. c #DC881B",
"B. c #C69B1F",
"V. c #E7801D",
"C. c #EA841E",
"Z. c #E4941B",
"A. c #EB991D",
"S. c #D3AC1D",
"D. c #EAA21B",
"F. c #E8A51C",
"G. c #F1AE1C",
"H. c #E7B91D",
"J. c #F4B41B",
"K. c #F6BB1C",
"L. c #F9BC1B",
"P. c #D29A32",
"I. c #ED8321",
"U. c #EC8925",
"Y. c #ED8B24",
"T. c #EF9129",
"R. c #F29E20",
"E. c #F0952D",
"W. c #F38532",
"Q. c #F48C34",
"!. c #F49435",
"~. c #F29C33",
"^. c #F49C39",
"/. c #D8B723",
"(. c #CBAD32",
"). c #F5AC28",
"_. c #E4B623",
"`. c #F0B72A",
"'. c #E8A23A",
"]. c #F4A437",
"[. c #F4A33A",
"{. c #FAC01A",
"}. c #9D9C43",
"|. c #B7A552",
" X c #C68946",
".X c #D78447",
"XX c #DB9259",
"oX c #F4964B",
"OX c #C5A345",
"+X c #D7A446",
"@X c #CAAA59",
"#X c #D9AA56",
"$X c #D6AC5C",
"%X c #F4A643",
"&X c #F5A847",
"*X c #F4A94D",
"=X c #E1A952",
"-X c #F4AC54",
";X c #F4906F",
":X c #C8AD67",
">X c #C9B86F",
",X c #D9B679",
"<X c #F5AC69",
"1X c #EBB46D",
"2X c #F4B165",
"3X c #F3B36A",
"4X c #EABA78",
"5X c #F4B874",
"6X c #F4B97D",
"7X c #BDC071",
"8X c #D0C075",
"9X c #F4C176",
"0X c #E9BB85",
"qX c #F4BB82",
"wX c #F3BE8C",
"eX c #F0BF90",
"rX c #E6CC8B",
"tX c #F5C194",
"yX c #F5C29A",
"uX c #F7C5A3",
"iX c #F6C7A8",
"pX c #F6C8A9",
/* pixels */
"t t t ; 2 5 5.9.q.7.$.X X X 1 4 = = = * O o o o + * q q ; - & @ % o O + t y M M ",
"6 6 ; - 3 4 7.7.q.0.o.X X : *.a.u.l.z.z.k.g.0 6 7 7 u w w e e - - - * & + y y M ",
"+ + & = 1 4 -.0.q.,.@.,.y.n.(.`.).).J.L.J.L.K.K._.(.z.u.y.8.e 8.r r w & + 6 y M ",
"+ ; 3 3 4 $.-.,.<.q.f.7XrX9X-X&X[.).).).R.R.Z.Z.A.G.K._.M.a.t.9.9.8.r - * 7 t 8 ",
"t w r e 4.6.,.,.s.7XrX1X*X[.[.[.[.[.[.[.E.T.I.Y P U Z.J.J.H.M.a.q.9.8.r i u 6 6 ",
"i i t.9.6.6.,.f.8X9X=X'.[.[.[.[.[.[.[.[.[.~.T.I.V.Y J U A.J.{./.l.7.4.9.y.w.; O ",
"r 8.9.9.6.6.f.>X1X&X[.[.[.[.[.[.[.[.[.[.[.].~.T.C.C.I K U Z.J.{./.h.-.6.e.e.2 # ",
"e e 4.6.6.d.,X5X&X[.[.[.[.[.[.[.[.[.[.[.[.].].~.E.C.V.U J J Z.J.{.H.h.=.6.9.2 = ",
"1 1 #.#.a.>X6X&X^.[.[.[.[.[.[.[.[.[.[.[.[.[.[.[.].T.C.C.Y J P Z.L.{.H.h.@.&.< > ",
", , , 5.|.0X-X%X[.[.[.[.[.[.[.[.[.[.[.[.[.[.[.[.].E.Y.C.E I J U D.L.{.S.2.o., 4 ",
", , 1 c.,X3X%X^.[.^.[.^.^.!.^.[.[.[.[.[.[.[.[.!.W.Q.E.Y.C.E J J N.K.{.L.j.$ $ 5 ",
"1 , r.:X6X-X[.*X3X-X%X!.] [ !.[.[.[.[.[.[.[.^.[ Q [ ~.Y.C.V.I J U D.{.L.S.3.*.t.",
"$.$.}.0X2X%X[.6XyX<XoX~ j l [ W.^.[.[.[.!.[ ~ k g k ~ ` R C.E P U F.{.{._.j.w.t.",
"$.u.:XwX-X[.%XqXuX;X! g f f h W W.^.[.[.!.^ h s s s j T C.C.C.I J Z.L.{.J.B.a e ",
"&.v.4XwX*X[.[.*X<XoX/ g s s h ^ !.[.[.[.[.Q.W f s g ~ W.E.C.C.I G P G.L.L.S.z : ",
"&.n.0X0X-X[.[.[.[.^.[ h s s l } ^.[.[.[.[.!.Q g g h ~ !.E.C.C.E K G Z.L.L.A.z o ",
"=.|.tXyX5X%X[.[.[.^.[ l ~ Q A } ^.[.[.[.[.^.{ { W.{ [ Q.E.Y.I.C.K G P D.L.D.b % ",
"r.@XyXiX6X%X[.[.[.^.!.!.^.!.!.!.[.[.[.[.[.[.[.[.[.^.^.[.~.Y.C.E I G H Z.L.D.n 7 ",
"l.#XyXiXqX&X[.[.[.[.[.[.[.[.[.[.[.[.[.[.[.[.[.[.[.[.[.[.E.Y.C.C.K G H U J.D.n u ",
"p.$XyXiXqX&X[.[.[.[.[.[.[.[.[.[.[.[.[.[.[.[.[.[.[.[.[.[.~.Y.C.C.I G G P A.F.n 7 ",
"p.$XtXiXtX*X[.[.[.[.[.[.[.[.[.[.[.[.[.[.[.[.[.[.[.[.[.].~.Y.I.C.P G G P Z.Z.c u ",
"p.$XtXiXyX-X[.[.[.[.[.[.[.[.[.[.[.[.[.[.[.[.[.[.[.[.[.[.~.Y.C.V.I G G J N.N.B a ",
"p.$XtXpXyX3X%X[.[.[.[.[.[.^.!.^.[.[.[.[.[.[.[.[.[.[.^.Q.E.Y.C.V.K G G J U U B u ",
"r.OXwXuX6X2X%X[.[.[.[.[.^.{ / } [.[.[.[.[.[.[.[.^.^.[ Q R I.C.V.J G G G G v x e ",
"7.m.qXuX5X%X^.[.[.[.^.W.{ l h ~ } !.^.[.[.[.[.^.W.[ l g A T R R G G G ( ( H z % ",
"7.n.1XyXqX%X[.[.[.[.W.W g f s s d ~ Q.[.[.[.^.W.Q g s s s g Z L G G G ) .XV 8   ",
"q.l.$XeXeX-X%X[.[.[.^.{ k f s f A W.].[.[.[.[.[.} l s s f Z R K G G ( .XXXB =   ",
"7.a.OX4XuX3X%X[.[.[.[.Q.W g g h ^ ^.[.[.[.[.[.^.Q.Q g g h Z L J G G ) XX Xm > . ",
"6.9.v.#XeX6X&X[.[.[.[.Q.^ ~ ^ Q ] !.[.[.[.[.[.[.Q.' D T Z S L G G ( _ XXC e.< > ",
"4.7.y.m.1XqX&X[.[.[.[.!.Q.^.[.!.!.^.[.[.[.[.[.[.^.!.Y.C.E L G G G ( XX Xu.-.*.5 ",
"4.4.$.p.+XqX2X%X[.[.[.[.[.[.[.[.[.[.[.[.[.[.[.[.].E.I.C.E K G G G ( P.N 2 -.5.7.",
"4.1 $.4 z.=X3X&X[.[.[.[.[.[.[.[.[.[.[.[.[.[.[.].~.Y.C.E P G G G F F B 2 $ O.7.t.",
"$.1 #.o.-.v.=X-X%X[.[.[.[.[.[.[.[.[.[.[.[.[.^.~.Y.C.C.I J G G G H b 2.X.o.$.=.9.",
"4.$., , o.-.v.(.[.[.[.[.^.[.[.[.^.[.[.[.[.[.~.Y.C.V.I J G G G H x 2.+.o.O.4 5.9.",
"7.*.o.X | | 1.a.(.'.[.[.[.[.[.[.[.[.[.[.[.~.Y.C.E P G G G H H x X.;.| o.< 4 *.5.",
"9.6.$., o.+.,.,.i.l.P.'.[.^.[.[.[.[.[.~.E.I.C.E K J G G J b 3.1.>...| o.1 5 5 r ",
"t.7.-.$.o.@.@.%.:.@.1.l.P.'.[.[.^.^.E.Y.C.V.P J J G H c z X.:.>.<.:.+.O.=.5 i w ",
"t.9.t.0.-.&.@.@.+.+.| +.+.=.l.b.P.Y.C.E P J H H v x z 2 X.+.>.<.>.:.@.-.w.p p p ",
"5 5.y.t.7.-.O.o.o.+.%. . .| o.o.=.=.9 0 0 9 9 *.$.o.o.+.;.;.>.>.>.;.+.=.w.a a a ",
"= 5 y.y.t.-.$.o.o.O.&.@.o. .X $ o.$.$.*.$.O.#.#.%.%.o.%.;.>.....>.;.@.2.u.u.x.x."
};
