/* XPM */
static char *_8087f30e5bb4434a6a3737c2effce96dTPHUjPFs3DYeVy7[] = {
/* columns rows colors chars-per-pixel */
"40 40 167 2 ",
"   c #2E5500",
".  c #355B05",
"X  c #3A6206",
"o  c #3F650E",
"O  c #3E6B0E",
"+  c #357504",
"@  c #387106",
"#  c #347D03",
"$  c #3A7D07",
"%  c #3C750C",
"&  c #367C0C",
"*  c #3C7C0D",
"=  c #3F6D10",
"-  c #3A7712",
";  c #3D7D11",
":  c #465007",
">  c #47570A",
",  c #4C530A",
"<  c #455D0C",
"1  c #525C0F",
"2  c #585E0F",
"3  c #555D12",
"4  c #5D5F14",
"5  c #4D610F",
"6  c #4D6C0F",
"7  c #51650D",
"8  c #417E0E",
"9  c #4B6512",
"0  c #426911",
"q  c #4C6C15",
"w  c #536414",
"e  c #586012",
"r  c #526D16",
"t  c #586D17",
"y  c #546718",
"u  c #5B641A",
"i  c #546B1A",
"p  c #5C6C1B",
"a  c #447413",
"s  c #4C7214",
"d  c #447C14",
"f  c #4A7C15",
"g  c #4B741B",
"h  c #467C1A",
"j  c #4B7B1B",
"k  c #507D16",
"l  c #54731C",
"z  c #5A721B",
"x  c #537C1B",
"c  c #5A7B1D",
"v  c #636117",
"b  c #64651A",
"n  c #6A641B",
"m  c #656B1D",
"M  c #6C681F",
"N  c #71661F",
"B  c #5F6F22",
"V  c #4F7C23",
"C  c #577622",
"Z  c #5C7422",
"A  c #547C23",
"S  c #5B7D24",
"D  c #597F29",
"F  c #6B6921",
"G  c #746A22",
"H  c #796B26",
"J  c #7E6D29",
"K  c #647321",
"L  c #637A23",
"P  c #697923",
"I  c #647F2A",
"U  c #797D2D",
"Y  c #85702E",
"T  c #8A7131",
"R  c #338305",
"E  c #3A8107",
"W  c #36840B",
"Q  c #3C840C",
"!  c #368A0A",
"~  c #3B8A0E",
"^  c #3D910F",
"/  c #3D8311",
"(  c #378A11",
")  c #3D8B13",
"_  c #3E8018",
"`  c #3F8819",
"'  c #3E9213",
"]  c #3E9816",
"[  c #42850D",
"{  c #48840F",
"}  c #42890F",
"|  c #42910F",
" . c #438413",
".. c #4B8416",
"X. c #448A14",
"o. c #498C15",
"O. c #45851A",
"+. c #4B841B",
"@. c #458C19",
"#. c #4A8D1B",
"$. c #518914",
"%. c #53841D",
"&. c #548A1D",
"*. c #439215",
"=. c #4A9216",
"-. c #419916",
";. c #45921A",
":. c #4B921B",
">. c #439C19",
",. c #4D991D",
"<. c #51941D",
"1. c #58911D",
"2. c #4D8422",
"3. c #4C8C24",
"4. c #548322",
"5. c #558725",
"6. c #588621",
"7. c #5C8422",
"8. c #588224",
"9. c #5B8324",
"0. c #5A8327",
"q. c #5D8127",
"w. c #528820",
"e. c #528823",
"r. c #538C22",
"t. c #518F22",
"y. c #578C23",
"u. c #518C25",
"i. c #518F25",
"p. c #548D25",
"a. c #578C27",
"s. c #5B8B25",
"d. c #598B27",
"f. c #5B8F26",
"g. c #538528",
"h. c #5B8328",
"j. c #56882B",
"k. c #578C2B",
"l. c #548E2B",
"z. c #588828",
"x. c #5D8829",
"c. c #5D8A2A",
"v. c #5E8D29",
"b. c #588A2C",
"n. c #4C9020",
"m. c #4D9321",
"M. c #519423",
"N. c #539523",
"B. c #549124",
"V. c #549A23",
"C. c #579628",
"Z. c #5A9429",
"A. c #618220",
"S. c #6A8626",
"D. c #618B23",
"F. c #648929",
"G. c #608D28",
"H. c #628D2B",
"J. c #65882E",
"K. c #638D2C",
"L. c #698C2E",
"P. c #728028",
"I. c #7A842E",
"U. c #71882B",
"Y. c #61942D",
"T. c #68902F",
"R. c #828233",
/* pixels */
"F F m p z c 7.G.Y.k.O.% % - j j q q r y 9 : : , 4 u B B B y 9 3 5 1 1 e n H Y T ",
"b b p t z x &.f.C.3.O.% % a h j s l C l i > > > 1 K B Z C C l C i y y e v G J Y ",
"3 3 w q s x w.B.i.n.` & & ; O.O.j 4.0.8.C 9 < 0 9 y C D D g.D D D S Z w 2 n G J ",
"u y z l x %.r.:.;.;.;.( ( ) ` 2.+.2.5.8.A q 0 q g V V V g.g.j.g.z.h.S t t m M N ",
"b Z S 8.w.r.#.;.) ) >.] ( ( ` @.O.O.+.+.j g j g g V h h V 2.3.l.b.z.h.S L K m v ",
"L J.J.x.k.3.3.@.W ( ` ( W R W Q / _ * - d a a h h - - - - ; 3.3.i.e.w.K.L.L m 2 ",
"S S x.s.p.B.@.X.Q ) X.) / / } ~ /  .d Q d ; ..O.O.; O.O.@.;.n.n.#.#.+.s.G.F.z 7 ",
"x 8.4.r.3.#.@.` ~ X.X.X.X.X.} { X.X.X.X.X.X.X.O.O.O.@.3.m.m.n.` o.o. .o.&.s.x 6 ",
"j j +.+.O.X.X. ./ X.o.o.o.{ { o.o.o.;.=.;.;.@.#.#.#.#.:.:.=.o.X.X.X.X.X...&.k s ",
"a d h  . . . .X.X.o.$.o.{ { { | o.=.=.=.:.;.:.:.:.:.:.:.o.X.} } ~ X.[ Q Q d f j ",
"f d d ; *  . .X.o.=.=.o.{ [ [ [ o.o.:.:.;.:.m.,.M.M.,.#.} [ E Q Q ~ Q $ + @ f c ",
"f d d * / / X.:.<.=.o.o.{ [ 8 Q X.X.@.;.@.*.:.V.M.M.<.o.} } E Q Q Q / Q * a x G.",
"+...../ Q / X.,.V.<.o.o.[ [ [ [ } o.#.X.@.;.m.V.V.M.<.o.X.} } } ~ Q / /  .d g.J.",
"+.O. .Q Q / X.:.V.<.=.o.[ [ [  .X.o.:.:.;.;.m.Z.V.V.<.:.=.X.=.X.X.X./ X.O.2.V h.",
"+... ./ Q ) ` ;.,.:.X.o.{ { [ [  .#.@.:.:.n.m.M.V.M.:.o.X.X.X.=.X.` Q * ; j a o ",
" . .X.Q W W ) *.,.=.X.X.{  . . . .@.O.@.@.:.:.<.<.:.=.X.} X.X.X.X./ * & ; h = . ",
" . . .) ~ ~ ) ) ;.;.[ X.X... . . . . ._ @.` X.@.:.:.o.} Q Q [ X.X./ / ; ; 2.= o ",
" .X.X.) ) ) ) ) X.X.o.o.o.o.o. . ./ * / _ / X.#.:.:.o.X.Q Q Q } X./ / @.O.2.V q ",
"X.X.X.X.) ' ) ' *.*.:.:.<.#.o.+./ ; & & & & X.:.<.<.o.X.[ E Q X.X.@.@.n.3.2.V V ",
" . .;.X.) ) ( ~ ~ ) X.:.:.&.o. .d / / _ / _ X.#.o.X.X.[ ~ } Q Q ) ` @.n.2.h g V ",
" .X.@.@.) ) ~ W Q Q X.X.#.:.o.+. . .O.` ` / X.X.[ [ Q [  .} } Q Q X.X.O.O.h g g ",
"#.@.;.@.) ~ W R R E } X.o.o.o.#.#.3.n.n.@.@. ./ Q Q Q } X.X.X.X.` ` @.O.2.2.g.D ",
"o.#.#.X.@.' ) ~ ~ ~ X.} X.o...o.#.#.n.n.n.@.` / Q [ X.o.:.:.:.:.X.@.X.O.O.3.8.D ",
"o.#.@.@.X.;.X.;.o.o.X.X.X.{  .{ o.#.n.n.;.@.X.X.X.X.=.<.<.V.V.:.:.;.@.O.+.e.A A ",
"w.#.#.#.X.;.:.:.<.,.:.:.o.{ [ [ Q / / X.X.X.X.:.#.B.V.V.V.V.V.V.:.;.#.#.3.+.a O ",
"w.r.3.#.@.@.;.:.,.<.<.<.o.{ [ E $ & Q Q ) ) #.#.<.<.V.V.<.<.,.;.:.=.#.m.r.3.O . ",
"v.f.B.#.#.X.X.X.=.:.<.<.=.o.{ E $ + # R Q / X.#.:.B.<.<.=.X.} } X.;.:.V.Z.r.O   ",
"s.B.Z.r.#.@.X.X.o.=.<.<.1.o.o.{ [ E & # W ) ) X.#.:.:.X.X.} } } X.X.:.N.C.&.a X ",
"s.k.p.B.#.O.@.X.} o.=.$.=.=.o. . .Q E E Q ~ )  .X.#.#.X.} } } } *.;.o.:.B.w.f a ",
"4.w.w.#.#.#.@.#.o.o.o.{ { { { o.X.[ E Q Q ) X.X.o.o.X.o.X.X.=.=.=.=.;.X.o.&.%.c ",
"%.%.+.+.O.@.#.X.=.o.} [ [ E E [ [ [ ~ Q ~ }  .o.#.#.o.o.=.=.=.,.:.=.X.[  .%.6.D.",
"8.+.O.d ..X.@.:.=.| [ [ # # E E E Q Q Q Q X. .@...o.o.$.1.,.<.,.=.;.~ 8 8 +.x.G.",
"+.j .. .X.@.:.:.,.*.~ R R R # R Q Q [ Q  .X. .*  .+.&.1.1.<.=.| | -.*.[  .%.y.G.",
"%.+.d d  .X.;.:.>.*.~ ! R R R ! X.X.X.X. .@. .d ..$.&.1.$.=.| | | | X.[ f x %.x.",
"s.%...* *  .;.;.,.*.~ ! ! ! ) ) X.X.X.X.o.O... ...$.&.$.o.| | | ^ *.~ { f k %.7.",
"Z.4...d Q  .;.:.>.;.~ ~ ~ ~ ) X.;.@. . ... ./ ;  ...$. .[ | | -.] *.Q  .f c c c ",
"K.x.%..... .o.:.;.) ~ ) ~ Q ) X.X. . . . .; & ; X. ...[ Q ! ' >.>.-.[ ..%.c c P ",
"x.x.v.f.w.$.o. .} X.) Q ! W Q Q /  .[ * % & ; ( / +. .E E ~ -.>.>.*.X.&.A.P P P ",
"c A.K.Y.f.&.+. . . .o. ./ Q Q ;  . ...d d  ._ @.` `  . .| *.*.>.*.*.X.7.S.P.U U ",
"r c L.T.G.&.+.....o.#.@. ./ *  ...+.+.+.+.O.2.@.` @.X.@.=.>.] ] ] *.#.D.U.I.R.R."
};
