/* XPM */
static char *dfbd11e2305844b1f390470321883467tGk2qvGov9CCP0LI[] = {
/* columns rows colors chars-per-pixel */
"40 40 169 2 ",
"   c None",
".  c #020202",
"X  c #0E0300",
"o  c #060D0C",
"O  c #0D0D0D",
"+  c #1C0701",
"@  c #140C06",
"#  c #1B0E0A",
"$  c #130904",
"%  c #0E100F",
"&  c #10100F",
"*  c #191507",
"=  c #03071D",
"-  c #0B1212",
";  c #081616",
":  c #131313",
">  c #181614",
",  c #171917",
"<  c #101D1C",
"1  c #1C1C1C",
"2  c #230C05",
"3  c #2C0B01",
"4  c #390D04",
"5  c #27150F",
"6  c #34160D",
"7  c #251F1A",
"8  c #271812",
"9  c #381E14",
"0  c #1F211F",
"q  c #15201F",
"w  c #1B143B",
"e  c #390F26",
"r  c #241021",
"t  c #260F39",
"y  c #281235",
"u  c #3F1C3A",
"i  c #1B2424",
"p  c #112222",
"a  c #242523",
"s  c #272827",
"d  c #282827",
"f  c #262A2A",
"g  c #2C2B2B",
"h  c #282626",
"j  c #302E2E",
"k  c #2D302F",
"l  c #332731",
"z  c #2F3231",
"x  c #323433",
"c  c #363939",
"v  c #480A05",
"b  c #5E1703",
"n  c #561507",
"m  c #571912",
"M  c #650A02",
"N  c #730501",
"B  c #641302",
"V  c #6D1B04",
"C  c #6F1A08",
"Z  c #751803",
"A  c #781307",
"S  c #641915",
"D  c #701510",
"F  c #50290E",
"G  c #4C2B1E",
"H  c #492315",
"J  c #493B15",
"K  c #7E260D",
"L  c #662214",
"P  c #5D0F33",
"I  c #401A3A",
"U  c #56123C",
"Y  c #5C1837",
"T  c #771926",
"R  c #472139",
"E  c #792C26",
"W  c #75312A",
"Q  c #713D30",
"!  c #544815",
"~  c #584918",
"^  c #5B5016",
"/  c #65472E",
"(  c #72482E",
")  c #7F4631",
"_  c #7B4C37",
"`  c #7F5431",
"'  c #7C6524",
"]  c #09144F",
"[  c #361651",
"{  c #0B2554",
"}  c #252A56",
"|  c #1F2769",
" . c #0F267B",
".. c #10297F",
"X. c #1A2E7B",
"o. c #103475",
"O. c #2A2F6A",
"+. c #3D2D6C",
"@. c #2D3D7B",
"#. c #3A3273",
"$. c #471545",
"%. c #571640",
"&. c #4C3147",
"*. c #4C2051",
"=. c #562752",
"-. c #4B2F66",
";. c #483C64",
":. c #53386D",
">. c #364444",
",. c #7A5A43",
"<. c #494371",
"1. c #5F4673",
"2. c #68517D",
"3. c #7B6474",
"4. c #8C0400",
"5. c #830600",
"6. c #9B0700",
"7. c #9B0F04",
"8. c #851805",
"9. c #9F1409",
"0. c #A10400",
"q. c #A80C04",
"w. c #A21407",
"e. c #B51C0E",
"r. c #B41D13",
"t. c #8B250C",
"y. c #972E16",
"u. c #BB2915",
"i. c #A3321B",
"p. c #BF3A1D",
"a. c #9E3B26",
"s. c #C63019",
"d. c #C83119",
"f. c #C53323",
"g. c #D43F22",
"h. c #854C36",
"j. c #895336",
"k. c #937929",
"l. c #8E613D",
"z. c #DB4C2E",
"x. c #DD5035",
"c. c #E3583D",
"v. c #9D6353",
"b. c #A26440",
"n. c #A36952",
"m. c #AB7355",
"M. c #CF5F45",
"N. c #E96448",
"B. c #9D8726",
"V. c #B0992B",
"C. c #C68352",
"Z. c #D28B52",
"A. c #D69057",
"S. c #DD9D6A",
"D. c #DD9B66",
"F. c #D79F76",
"G. c #E5A977",
"H. c #1B3181",
"J. c #133992",
"K. c #2D4187",
"L. c #325196",
"P. c #385DA4",
"I. c #5E5B83",
"U. c #EBB284",
"Y. c #EEB98B",
"T. c #E2B490",
"R. c #F1BF92",
"E. c #F6CB9E",
"W. c #FDD6A9",
/* pixels */
"                                                                                ",
"                                O : : a g         g g z x x g a                 ",
"                              % a g x g 1     s g x x z g d a                   ",
"                            O a j c z     % s j c z g s g a a                   ",
"                          : a g j c g O : j c c a a g g g a                     ",
"                      a a 0 d j g j : > a a a a a g g a a a                     ",
"                  a x x g g g g h j O 1 g g a a s a a a a 1 . . .               ",
"                a j x x z g d d a : , h j g a d g a h 1 O & 1 , 1 0 a           ",
"              o : x j g d d a a h o 0 g g g h j j g 1 > : , g d g d s a         ",
"            : O . 1 g h d a a a h : h d h h g j j g 1 1 g g a a a g g g         ",
"      a a s a 1 X o h g g d h g a h g d a a a j j j g h a a a g g               ",
"      a z x j g a a g h a a g a a a g h a 0 a g g j h a a a j                   ",
"        a a h j g g s a a i a g a a h d a a g a a a g d a g                     ",
"        o , h h j g g a 0 a a a g a g d a a j a a O , a a a a j c x             ",
"    a o . o > a d x j g d a a a j a g h a g a a i , 0 s d g g x g               ",
"      : : : & & : g x j g a a a d a h a a a a a a d d 7 1 j c g                 ",
"        a a 1 O % : 1 h g g h h a d a a a a d s d d d 7 , s k a                 ",
"          a a a 0 O O 1 a g g d a d a a a a g g d 0 i a a a a                   ",
"            : a 0 a g d a a a a j a a d d a a a a & 7 s i 1 a                   ",
"              . . 0 g g j g a a j a a d d a a a g j g g > .                     ",
"                . . 0 c x j j g j a g s s g g g g c g a , .                     ",
"                  ; o f x g h c j a z g d z x a g c 1 - p                       ",
"                    < f 0 , d z a a x g a g j a : s i >.                        ",
"                    G H 8 - : d & 0 g g 1 , a % - 9 m W v.                      ",
"                    R D m 6 2 : o i i i < o > 3 9 V T Y l                       ",
"                  ....U A t.V # 7 7 7 7 7 5 4 t.A T +.K.<.;.                    ",
"                | L.P...P e.p.K b b b b B V t.g.q.#.X.3.G.Z.h.                  ",
"                ) Z.E.2.P e.z.M.. . . . . H N.g.q.[ &.m.U.G.Z.                  ",
"                _ E.W.T.n.a.i.@ . . ' J ^ B.6 g.q.W Q b.S.F.h.                  ",
"              j.C.Y.W.E.,.L i.@ k.V.! @ ~ k.2 g.q.v # G j._ #                   ",
"              j.A.U.R.G./ v 9.B J ! * . * F N e.8.t = @ 5 8                     ",
"              ( ( D.S.l.l t U *.{ { { { { } =.U I u r                           ",
"                @ j.j.H e $.*.1.1.1.:.-.-.:.2.=.$.S                             ",
"                  . . 4 M 5.w.s.d.d.e.e.r.f.c.s.7.B                             ",
"                      . . 3 V 6.6.4.u.x.N.c.s.4.B +                             ",
"                            + V Z X N 6.0.0.4.. .                               ",
"                              X X . n Z Z Z B .                                 ",
"                                  . w O.@.} +                                   ",
"                                  . ]  .J.o..                                   ",
"                                                                                "
};
