/* XPM */
static char *_e43d8720cdd44b6ba63d46555fcd34bNOuFoKRcOZAVre1W[] = {
/* columns rows colors chars-per-pixel */
"40 40 190 2 ",
"   c None",
".  c #020202",
"X  c #070807",
"o  c #0C0C0C",
"O  c #02040F",
"+  c #1C0F0B",
"@  c #0F100F",
"#  c #17110F",
"$  c #0E0F11",
"%  c #09081A",
"&  c #0F1011",
"*  c #131313",
"=  c #1A1716",
"-  c #171917",
";  c #191816",
":  c #1B1C1B",
">  c #15101A",
",  c #280501",
"<  c #300C01",
"1  c #23130E",
"2  c #2F130B",
"3  c #2B1D14",
"4  c #221E1D",
"5  c #271610",
"6  c #391518",
"7  c #1E201E",
"8  c #28231B",
"9  c #37281B",
"0  c #040923",
"q  c #191326",
"w  c #07103E",
"e  c #1F1D33",
"r  c #06122D",
"t  c #3C1E2C",
"y  c #3A1C36",
"u  c #192125",
"i  c #242523",
"p  c #262826",
"a  c #282827",
"s  c #2C2B2A",
"d  c #272728",
"f  c #372D25",
"g  c #2E302F",
"h  c #3C3329",
"j  c #2F3131",
"k  c #313232",
"l  c #3A3C3C",
"z  c #580A02",
"x  c #46170B",
"c  c #5C1507",
"v  c #7A0A05",
"b  c #681105",
"n  c #7F1402",
"m  c #7A1011",
"M  c #650F07",
"N  c #452A18",
"B  c #43301F",
"V  c #71331B",
"C  c #7C2B1A",
"Z  c #501931",
"A  c #7A1427",
"S  c #532D21",
"D  c #4D3C2E",
"F  c #433223",
"G  c #5C3D23",
"H  c #493438",
"J  c #6F3C2B",
"K  c #6D2A3F",
"L  c #36583A",
"P  c #5B4939",
"I  c #515F3B",
"U  c #4C433A",
"Y  c #64482C",
"T  c #754C2D",
"R  c #6C533F",
"E  c #7E513D",
"W  c #674738",
"Q  c #6E663B",
"!  c #0C1956",
"~  c #15154D",
"^  c #241846",
"/  c #12274F",
"(  c #142A51",
")  c #2D2959",
"_  c #0D1D70",
"`  c #142869",
"'  c #0F306F",
"]  c #0F257A",
"[  c #192270",
"{  c #14367A",
"}  c #283668",
"|  c #2A3777",
" . c #3A3D7F",
".. c #242868",
"X. c #481343",
"o. c #513E5B",
"O. c #453A64",
"+. c #3F5E42",
"@. c #2E427D",
"#. c #3C417B",
"$. c #3E6464",
"%. c #4B4B4B",
"&. c #424542",
"*. c #5F5042",
"=. c #4F5C50",
"-. c gray32",
";. c #5D5D5D",
":. c #535853",
">. c #475B49",
",. c #62544B",
"<. c #6F5E50",
"1. c #626044",
"2. c #746355",
"3. c #766248",
"4. c #6A5A6E",
"5. c #546167",
"6. c #636363",
"7. c #6B6B6B",
"8. c #666868",
"9. c #667C68",
"0. c #747875",
"q. c #756D79",
"w. c #870B04",
"e. c #8D1414",
"r. c #A60903",
"t. c #82291A",
"y. c #BA2111",
"u. c #941E25",
"i. c #87392C",
"p. c #9C3436",
"a. c #C6301B",
"s. c #D43F22",
"d. c #844B32",
"f. c #804731",
"g. c #885639",
"h. c #98603B",
"j. c #E35739",
"k. c #893D46",
"l. c #8F5B45",
"z. c #814052",
"x. c #8C6B4F",
"c. c #9F7A5B",
"v. c #9B6C46",
"b. c #A5704B",
"n. c #BF7B4B",
"m. c #897864",
"M. c #C17D4B",
"N. c #6E816F",
"B. c #758277",
"V. c #BB8151",
"C. c #BB8D72",
"Z. c #B48D6B",
"A. c #CC8A56",
"S. c #D58D54",
"D. c #D6935C",
"F. c #DD9A65",
"G. c #C89164",
"H. c #E1A46E",
"J. c #E3A674",
"K. c #E4A976",
"L. c #143187",
"P. c #173388",
"I. c #143D96",
"U. c #1D439B",
"Y. c #234782",
"T. c #1545A0",
"R. c #2F52A5",
"E. c #3262B7",
"W. c #435590",
"Q. c #6E6682",
"!. c #626894",
"~. c #4675C4",
"^. c #7C8DA9",
"/. c #8D878A",
"(. c #B3A799",
"). c #A6A2AC",
"_. c #C89C82",
"`. c #C1A08E",
"'. c #EBB385",
"]. c #EFBA8D",
"[. c #F0BC8F",
"{. c #D8B9A0",
"}. c #F4C699",
"|. c #FBD2A5",
" X c #FED7AA",
".X c #FFD9AD",
"XX c #E9CAAD",
"oX c #9FBDD6",
"OX c #89ABDE",
"+X c white",
/* pixels */
"                                                                                ",
"                                      7.k j k j s k k k s g g 0.                ",
"                                  ;.-.- & - u d d : - . . >.                    ",
"                                7.o * * 8 s k k k p * . =.                      ",
"                              0.o o p p s k g a a * . :.    9.9.9.9.9.0.        ",
"                    k o 8.    X o i s k k k p p a . %.    &.o o $ o X &.        ",
"                  4 : $ X ;.  & p i a k k p i i a >   a o : p a p p k           ",
"                  : : i $ . o p s i i k s i i p a i . 7 a k l j @ k             ",
"                  : i p o $ p a i 8 i s p i a s s s i a k s - ;.                ",
"                s 7 s s i i a p i i s g s p p a s a s a d s a a 8.              ",
"                . i s a a a i i u i s a s s a p s i p a s - : p s 7.            ",
"                . : s a i i i i i a a a s s a a a p i a a * . - i a             ",
"                . : s a p i i i i g i s s p p a i * i a a - X o - - X           ",
"                . 7 s s p p i i i s i s p i p i ; 1 ; : g s * 4 -.-.-.-.        ",
"                . 7 a p a a a s 4 s 4 a a i 8 = 5 f.1 4 k k : 6.                ",
"                . : s p a a p i . g X - a a * 1 d.A.T f g k q ;.                ",
"              * . : i o : a a i . s X : g k : 1 d.S.A.h i j : 6.                ",
"        k s p . - i i o * ; $ p i o S + : g 4 X 6 S.K.V.D a - 6.                ",
"        . o - - p $ o ; i ; o @ i 4 5 T 9 $ k &.3 K.'.D.B ; 8.                  ",
"        %.X * i $ . * i p : f R * d X T g.2.7.+.h '.'.H.D 8.                    ",
"          %.X * o * i - : u P G.P = & 6 b.{./.g U }.'.'.,.                      ",
"            -.%.- - - * - : F v.c.N P D Z.XX(.2.m. X}.'.,.                      ",
"                . . . * : * o 3 9 n.J.'.}..X.X.X X.X.X'.<.                      ",
"              - * . . . . . 1 J J J M.J.}..X.X.X X X|.D.                        ",
"                  q . . . X = = ; ; Y V.K.}. X X|.'.D.P                         ",
"                          $.! ^ w.M 3 9 h W l.l.E 8 8                           ",
"                          Y.I.P.X.w.c ^ ` | 4.d.8                               ",
"                        @.] U.E.P.Z w.Z ..L.W./.3.>.                            ",
"                      5.o.4.!.R.L._ m z q w ) q.q.@                             ",
"                      1.l.K.`.O...) x 2 f B N f { o                             ",
"                      +.T A.J.A.l.g.> H Z.K.E % ~ o                             ",
"                        +.G F.|.'.'.| I.).}.x., M o                             ",
"                        L G F.]. X X| U.~.).l.< w.$                             ",
"                        Q x Y F.].]._.Y.U.) e [ ..>                             ",
"                        Q b c N D ,.D q r x X.Y.z.{ OX                          ",
"                        I z v z z i.i.C b w.u.k.t.( oXoX                        ",
"                        L < w.r.y.s.j.a.e.w.e.K y ( ^.oX                        ",
"                          9 c A p.a.p.m V T H ! ! ' !                           ",
"                            0 ] [ m ~ u         8 j                             ",
"                            % ] U.] O oX                                        "
};
