/* XPM */
static char *_37cd6a1af2740018b021e1117297beclVSD4yMsK6Twf54R[] = {
/* columns rows colors chars-per-pixel */
"40 40 165 2 ",
"   c None",
".  c #020201",
"X  c #0E0300",
"o  c #0B0903",
"O  c #0C0C0C",
"+  c #010209",
"@  c #160501",
"#  c #1F0300",
"$  c #120B08",
"%  c #0F100F",
"&  c #1B130E",
"*  c #17100C",
"=  c #030619",
"-  c #08081A",
";  c #110711",
":  c #061313",
">  c #0C1312",
",  c #0B1B1B",
"<  c #131313",
"1  c #1A1614",
"2  c #171817",
"3  c #161C1B",
"4  c #1C1C1B",
"5  c #230A03",
"6  c #2C0B01",
"7  c #330A01",
"8  c #24160B",
"9  c #281C18",
"0  c #341B13",
"q  c #1D201D",
"w  c #2D250D",
"e  c #20201F",
"r  c #0A0C2E",
"t  c #06142D",
"y  c #3B152D",
"u  c #3F1C39",
"i  c #1C2423",
"p  c #232523",
"a  c #292727",
"s  c #272827",
"d  c #282827",
"f  c #2C2B2B",
"g  c #222929",
"h  c #302F2F",
"j  c #2E302F",
"k  c #2E3130",
"l  c #323434",
"z  c #363939",
"x  c #4C0901",
"c  c #510603",
"v  c #421207",
"b  c #5D1C0F",
"n  c #591817",
"m  c #491C1B",
"M  c #660D04",
"N  c #7B0E07",
"B  c #6C1A04",
"V  c #671404",
"C  c #731705",
"Z  c #7B1504",
"A  c #711B04",
"S  c #7C1908",
"D  c #6B0D1F",
"F  c #412116",
"G  c #47241A",
"H  c #5C3211",
"J  c #4E2F11",
"K  c #6E291A",
"L  c #4C1A2B",
"P  c #5C1B2C",
"I  c #421B35",
"U  c #791529",
"Y  c #4D2B3E",
"T  c #5B333D",
"R  c #6F3021",
"E  c #753E2D",
"W  c #6C3B33",
"Q  c #574718",
"!  c #695C19",
"~  c #77671E",
"^  c #78442E",
"/  c #7B5F20",
"(  c #7F5434",
")  c #766220",
"_  c #091E43",
"`  c #2A1B53",
"'  c #27185C",
"]  c #371B57",
"[  c #0D1C6F",
"{  c #1F1961",
"}  c #101D6D",
"|  c #0D1E72",
" . c #241E64",
".. c #0F2478",
"X. c #122375",
"o. c #3A3569",
"O. c #4E2C40",
"+. c #573542",
"@. c #4A4C4B",
"#. c #8F080E",
"$. c #9D0604",
"%. c #960905",
"&. c #871002",
"*. c #9C1105",
"=. c #840B10",
"-. c #900C14",
";. c #88101C",
":. c #A20501",
">. c #AA0F06",
",. c #B3180C",
"<. c #B61E11",
"1. c #802008",
"2. c #90280E",
"3. c #832D1B",
"4. c #9E2C12",
"5. c #B1200E",
"6. c #A42111",
"7. c #BB261A",
"8. c #832E21",
"9. c #8C3D2B",
"0. c #BE3B20",
"q. c #C52F19",
"w. c #CE381E",
"e. c #C5331E",
"r. c #C93D22",
"t. c #83721F",
"y. c #855337",
"u. c #836D24",
"i. c #946039",
"p. c #D04025",
"a. c #CD4433",
"s. c #DD5336",
"d. c #DE5A3C",
"f. c #E1593F",
"g. c #9F6A4F",
"h. c #A46644",
"j. c #B8784A",
"k. c #9E7E7D",
"l. c #A6796E",
"z. c #E45C43",
"x. c #C27D4B",
"c. c #BA865C",
"v. c #BD8869",
"b. c #C9834E",
"n. c #CB9265",
"m. c #C99771",
"M. c #DEA06E",
"N. c #DAA479",
"B. c #E0A06D",
"V. c #E4A674",
"C. c #163C93",
"Z. c #143E98",
"A. c #2B3A83",
"S. c #1B459E",
"D. c #274090",
"F. c #2E4895",
"G. c #2C4694",
"H. c #194AA3",
"J. c #9B8E98",
"K. c #AAABAA",
"L. c #CFA583",
"P. c #EDB788",
"I. c #E4BF9E",
"U. c #F1BE90",
"Y. c #F9CDA0",
/* pixels */
"                                  . . . p a p       p i j z z f p               ",
"                                O 4 p f p p     p j l l l h h p                 ",
"                              < 4 f l l f O > a f l l f f f a p                 ",
"                            % q f l l f % % q j l j f a f d p p                 ",
"                          O 4 d f h l 3 < 9 f l f p p f f a p                   ",
"                      f s p p f f f f . p a p p p p f p p i p                   ",
"                    f z z h h h f p f . p h a p p f p p p p 4 . . .             ",
"                p j l h h h p p p 4 O p f h a p f h p f 2 . O p a a p p p       ",
"              . o 3 f f p a p p a q . f a f f f h h f 2 2 e p p s p f f d p     ",
"      p p p p < O O 4 f d d p s a g 9 f p p d f f h j 9 e a p p d f f           ",
"      p p f a a 2 % 4 f a d p a a p f h p p p p h f h f p p p a f               ",
"        @.l f h a p a f p p f a p i p f p p p a f f f a p p a j                 ",
"        K.e p f f h f p p p i a f p p f p p a f p p 4 a a p f                   ",
"          o f p f h h f e p p p a f p f p p p f e p O 2 p p p p f l l           ",
"      < . . O q p h l h f p p p d f p f p f a p p p q i a f f f l j             ",
"      3 2 2 < O O 3 f l f f p p p p p a p p p p p i a f 4 4 h l f               ",
"        p p f < < < < 4 f f f f p p d p p p p d d d d d 4 4 d f                 ",
"          p 4 p p 2 < < p p f f f d d p p p s f d f 4 e p p p p                 ",
"            . 4 4 q a f p p p p p f p p f d p p p p % e d q 4 e                 ",
"              . . % p h h f p p d f i p f p p p p h h h d 2 .                   ",
"                . . > s z h f f h f p f p d f h f j z s p q .                   ",
"                  : > < z h f j l f p z p f l l s f z 2 > ,                     ",
"                    , , k < q f f s p z d p f f e < j q ,                       ",
"                    b n J % > e e 2 p l d 2 4 p < : G 0                         ",
"                  I P U Z 0 6 & > > i i i > > & 5 9 C n I                       ",
"                o.o.A.A.;.S S v * q q q q q & 7 S Z =.] ....                    ",
"              ^ j.B.J...H.-.q.6.A B B B B B A 2.w.:.' S.H.C.}                   ",
"              b.B.V.c.+.X.#.q.f.9.o X X X X R f.w.:.' J.L.g.W                   ",
"              y.m.V.j.W T %.q.3.8 . o u.8 ! ) K r.8.l.I.Y.m.^                   ",
"              0 y.h.^ 0 0 %.q.b w ~ u.Q * ~ ~ 0 0.0 m.Y.Y.N.h.E                 ",
"                0 F 0 + r N 5.Z b ~ ~ o . J H M 6.. c.U.U.B.x.E                 ",
"                  . . ; ` L D U L t t t t t y U D - y.n.V.n.i.E                 ",
"                        A `  .A.F.A.D.G.G.F.F.A. .{ ; ( j.( .                   ",
"                        A $.q.z.a.$.$.$.r.r.r.q.$.$.Z 5 o .                     ",
"                        @ M *.q.s.z.f.r.,.>.>.*.V # @                           ",
"                          5 6 N <.7.7.,.c M N M 5                               ",
"                            . x &.&.&.&.# # 7 6                                 ",
"                              7 m O.Y L $ . .                                   ",
"                              . _ H.Z.[ =                                       ",
"                              . _ Z.[ [ =                                       "
};
