/* XPM */
static char *e869da5dc5784ae997142e7659f4d61cVHbYMJMXQmGBGvWQ[] = {
/* columns rows colors chars-per-pixel */
"40 40 199 2 ",
"   c None",
".  c #020202",
"X  c #070807",
"o  c #02040F",
"O  c #0B0B0B",
"+  c #0C0C0C",
"@  c #1C0F0B",
"#  c #0F100F",
"$  c #0E0F11",
"%  c #09081A",
"&  c #0F1011",
"*  c #131313",
"=  c gray8",
"-  c #1A1716",
";  c #171917",
":  c #191816",
">  c #15101A",
",  c #1B1C1B",
"<  c gray11",
"1  c #280501",
"2  c #300C01",
"3  c #23130E",
"4  c #2F130B",
"5  c #271610",
"6  c #2B1D14",
"7  c #221E1C",
"8  c #221E1D",
"9  c #391518",
"0  c #1E201E",
"q  c #28221B",
"w  c #28231B",
"e  c #37281B",
"r  c #040923",
"t  c #06122D",
"y  c #191326",
"u  c #07103E",
"i  c #1F1D33",
"p  c #3A1C36",
"a  c #192125",
"s  c #242523",
"d  c #252825",
"f  c #262826",
"g  c #282827",
"h  c #272728",
"j  c #2C2A2A",
"k  c #2C2B2A",
"l  c #372D25",
"z  c #2E302F",
"x  c #2E312F",
"c  c #3C3329",
"v  c #2F3131",
"b  c #303131",
"n  c #313232",
"m  c #313333",
"M  c #3A3C3C",
"N  c #580A02",
"B  c #46170B",
"V  c #5C1507",
"C  c #650F07",
"Z  c #7A0A05",
"A  c #681105",
"S  c #7A1011",
"D  c #452A18",
"F  c #43301F",
"G  c #7C2B1A",
"H  c #71331B",
"J  c #501931",
"K  c #7A1427",
"L  c #532D21",
"P  c #433223",
"I  c #4D3C2E",
"U  c #5C3D23",
"Y  c #493438",
"T  c #6F3C2B",
"R  c #6D2A3F",
"E  c #36583A",
"W  c #36593A",
"Q  c #4C433A",
"!  c #5B4939",
"~  c #515F3B",
"^  c #64482C",
"/  c #754C2D",
"(  c #674738",
")  c #6C533F",
"_  c #7E513D",
"`  c #6E663B",
"'  c #15154D",
"]  c #0C1956",
"[  c #241846",
"{  c #142A51",
"}  c #2D2959",
"|  c #0D1D70",
" . c #142869",
".. c #0F306F",
"X. c #0F257A",
"o. c #192270",
"O. c #14367A",
"+. c #242868",
"@. c #2A3777",
"#. c #481343",
"$. c #513E5B",
"%. c #453A64",
"&. c #3F5E42",
"*. c #2E427D",
"=. c #3E6464",
"-. c #424542",
";. c #434543",
":. c gray29",
">. c #4B4B4B",
",. c #4C4C4C",
"<. c #475B49",
"1. c #485B49",
"2. c #4F5C4F",
"3. c #515151",
"4. c gray32",
"5. c #545854",
"6. c #5D5D5D",
"7. c #62544B",
"8. c #6F5E50",
"9. c #626044",
"0. c #766248",
"q. c #746355",
"w. c #6A5A6E",
"e. c #546167",
"r. c gray39",
"t. c #646464",
"y. c #666868",
"u. c #676868",
"i. c #6A6A6A",
"p. c gray42",
"a. c #667D67",
"s. c #667C68",
"d. c #677C68",
"f. c #667D68",
"g. c #667C69",
"h. c #756D79",
"j. c #747874",
"k. c #747975",
"l. c #870B04",
"z. c #8D1414",
"x. c #A60903",
"c. c #82291A",
"v. c #BA2111",
"b. c #941E25",
"n. c #87392C",
"m. c #9C3436",
"M. c #C6301B",
"N. c #D43F22",
"B. c #804731",
"V. c #844B32",
"C. c #885639",
"Z. c #E35739",
"A. c #893D46",
"S. c #8F5B45",
"D. c #814052",
"F. c #8C6B4F",
"G. c #9B6C46",
"H. c #9F7A5B",
"J. c #A5704B",
"K. c #BF7B4B",
"L. c #897864",
"P. c #C17D4B",
"I. c #BB8151",
"U. c #B48D6B",
"Y. c #CC8A56",
"T. c #D58D54",
"R. c #D6935C",
"E. c #C89164",
"W. c #DD9A65",
"Q. c #E1A46E",
"!. c #E3A674",
"~. c #E4A976",
"^. c #143187",
"/. c #173388",
"(. c #143D96",
"). c #1D439B",
"_. c #234782",
"`. c #2F52A5",
"'. c #3262B7",
"]. c #435590",
"[. c #626894",
"{. c #4675C4",
"}. c #7C8DA9",
"|. c #8D878A",
" X c #B3A799",
".X c #A6A2AC",
"XX c #C89C82",
"oX c #C1A08E",
"OX c #EBB385",
"+X c #EFBA8D",
"@X c #D8B9A0",
"#X c #F4C699",
"$X c #E9CAAD",
"%X c #FBD2A5",
"&X c #FED7AA",
"*X c #FFD9AD",
"=X c #89ABDE",
"-X c #9FBDD6",
";X c #9EBED6",
/* pixels */
"                                                                                ",
"                j.z v k n n n k v n v n p.                                      ",
"                    1.. . ; , h h a ; & ; 3.                                    ",
"                      2.. * f n n n k w * * +                                   ",
"        j.f.f.g.a.f.    5.. * g g z n k f f + +                                 ",
"        -.X + $ + + -.    ,.. g f f n n n k s + X       O                       ",
"          m f f g f , + g   > g s s f n n g s f &   6.X & , 8                   ",
"            m + v M n g 0 . s g f s s k n s s k f + . $ s , <                   ",
"                6.; k n g s k k k g s f k s w s g f $ + f s ,                   ",
"              i.g g k h g k g k g f f k z k s s f g s s k k < k                 ",
"            i.k f , ; k g f s k f g k k g k s a s s g g g k f .                 ",
"            g f ; . * g g s f g g g k k g g g s s s s s g k , .                 ",
"          O ; ; + X ; g g s * s g f f k k s z s s s s f g k , .                 ",
"        3.3.3.3.8 * k z , : 3 : s f s f k s k s s s f f k k 0 .                 ",
"                r., n n 8 3 B.5 - w s g g 8 k 8 k g g g f g 0 .                 ",
"                6.y n z l / Y.V.3 * g g ; X z . s f g g f k , .                 ",
"                t.< v s c Y.T.V.3 , n z , X h . s h f , + s , . *               ",
"                t.; f I I.~.T.9 X 8 z , @ L + s h & : * + s s ; . f k n         ",
"                  y.- F R.OX~.6 -.n $ e / 5 q w & O ; s : + & f ; ; + .         ",
"                    y.I Q.OXOXc <.i.q.C./ X h * ) l , f s * . & s * X >.        ",
"                      7.OXOX#XQ x |.@XJ.9 # - ! E.! a , ; s * + * X >.          ",
"                      7.OX#X&XL.q. X$XU.I ! D H.G.P , ; * ; ; ; :.3.            ",
"                      8.OX*X*X&X&X*X*X#XOX!.K.e 6 + * , * . . .                 ",
"                        R.%X&X&X*X*X*X#X!.I.T T T 3 . . . . . * ;               ",
"                        ! R.OX%X&X&X#X~.I.^ : : : : X . . . y                   ",
"                          w w _ S.S.( c e 6 C l.[ ] =.                          ",
"                              w V.w.@. .[ V l.#./.(._.                          ",
"                            1.0.|.].^.+.J l.J /.'.).X.*.                        ",
"                            # h.h.} u y N S | ^.`.[.w.$.e.                      ",
"                            + O.l D F l 4 B } +.%.oX~.S.9.                      ",
"                            + ' % _ ~.U.Y > C.S.Y.!.Y./ &.                      ",
"                            + C 1 F.#X.X(.@.OXOX%XW.U &.                        ",
"                            $ l.2 S..X{.).@.&X&X+XW.U E                         ",
"                            > +.o.i } )._.XX+X+XW.^ B `                         ",
"                          =XO.D._.#.B t y I 7.I D V A `                         ",
"                          -X{ c.A.b.l.A G n.n.N N Z N ~                         ",
"                        -X}.{ p R z.l.z.M.Z.N.v.x.l.2 E                         ",
"                          ] ..] ] Y / H S m.M.m.K V e                           ",
"                            n           a ' S o.X.r                             ",
"                                        -Xo X.).X.%                             "
};
