/* XPM */
static char *_045cf9bbb724ac3e20e41d6798081c7Lp5i19fuHCREUWjU[] = {
/* columns rows colors chars-per-pixel */
"40 40 217 2 ",
"   c None",
".  c #020202",
"X  c #0C0B0B",
"o  c #0A0807",
"O  c #1A0301",
"+  c #140C08",
"@  c #180704",
"#  c #1C120B",
"$  c #050818",
"%  c #131413",
"&  c #171817",
"*  c #1B1B1B",
"=  c #1A1615",
"-  c #140810",
";  c #2B0805",
":  c #350702",
">  c #24140E",
",  c #281A0F",
"<  c #33150A",
"1  c #251A13",
"2  c #2B1B12",
"3  c #231916",
"4  c #380E1E",
"5  c #1F211F",
"6  c #3C2516",
"7  c #36251A",
"8  c #060A29",
"9  c #1C173C",
"0  c #1F192C",
"q  c #321A32",
"w  c #1E2020",
"e  c #242523",
"r  c #262827",
"t  c #282827",
"y  c #2C2B2B",
"u  c #282827",
"i  c #302F2F",
"p  c #3A2C27",
"a  c #2F3131",
"s  c #323333",
"d  c #363939",
"f  c #2F302F",
"g  c #491504",
"h  c #571406",
"j  c #4B0D0D",
"k  c #6A1A09",
"l  c #731B05",
"z  c #720901",
"x  c #43291A",
"c  c #572514",
"v  c #56341D",
"b  c #75210D",
"n  c #481B2A",
"m  c #471B3A",
"M  c #5F153A",
"N  c #791529",
"B  c #700C21",
"V  c #4C2C27",
"C  c #583726",
"Z  c #493933",
"A  c #512D2E",
"S  c #6C3C2A",
"D  c #633A28",
"F  c #79343B",
"G  c #3E403E",
"H  c #665A1D",
"J  c #544132",
"K  c #7A422F",
"L  c #73422C",
"P  c #6A473B",
"I  c #784A37",
"U  c #78543A",
"Y  c #28185B",
"T  c #38154F",
"R  c #1F2549",
"E  c #2C2954",
"W  c #0D1B6C",
"Q  c #171B67",
"!  c #0F1E71",
"~  c #221960",
"^  c #0F2174",
"/  c #142375",
"(  c #182C7C",
")  c #133776",
"_  c #2A306C",
"`  c #0B134B",
"'  c #491B4D",
"]  c #593A46",
"[  c #543459",
"{  c #71314E",
"}  c #3F4246",
"|  c #595857",
" . c #4F4B4A",
".. c #664A5A",
"X. c #6C5659",
"o. c #784452",
"O. c #726557",
"+. c #4E546F",
"@. c #734C6C",
"#. c gray42",
"$. c #797979",
"%. c #746F6C",
"&. c #8F0D02",
"*. c #990606",
"=. c #930905",
"-. c #961708",
";. c #870814",
":. c #8B1513",
">. c #A8160A",
",. c #AD120A",
"<. c #8A2B17",
"1. c #9C2D13",
"2. c #9E270F",
"3. c #A82715",
"4. c #B92615",
"5. c #B13318",
"6. c #9D292F",
"7. c #B43D34",
"8. c #BB2F20",
"9. c #C5321D",
"0. c #CB3A28",
"q. c #D23D20",
"w. c #885839",
"e. c #8E543A",
"r. c #B14139",
"t. c #97643B",
"y. c #A2633E",
"u. c #D8472C",
"i. c #D64B33",
"p. c #DC5134",
"a. c #DC513A",
"s. c #E65C3E",
"d. c #933944",
"f. c #875742",
"g. c #934853",
"h. c #83644A",
"j. c #996846",
"k. c #9C735D",
"l. c #A86843",
"z. c #AC7143",
"x. c #B4744A",
"c. c #B77849",
"v. c #A87B59",
"b. c #B17C58",
"n. c #864A63",
"m. c #876867",
"M. c #877E7B",
"N. c #9A746D",
"B. c #A47861",
"V. c #DC5B46",
"C. c #E35B42",
"Z. c #E85F41",
"A. c #C07C4A",
"S. c #EC6648",
"D. c #F26F51",
"F. c #A2902F",
"G. c #B8835A",
"H. c #AB8362",
"J. c #B08E7A",
"K. c #C6834E",
"L. c #CD8954",
"P. c #D28D54",
"I. c #D79158",
"U. c #D79967",
"Y. c #CE9D78",
"T. c #C49065",
"R. c #DCA67A",
"E. c #E0A16D",
"W. c #E2A572",
"Q. c #E6AC7D",
"!. c #183688",
"~. c #192E81",
"^. c #2D3984",
"/. c #3D4887",
"(. c #2E4896",
"). c #2755AC",
"_. c #2E5EB5",
"`. c #3961B3",
"'. c #414D8D",
"]. c #455898",
"[. c #555889",
"{. c #64558C",
"}. c #6F6A86",
"|. c #4B64A3",
" X c #436CBB",
".X c #5973B0",
"XX c #6669A0",
"oX c #4E78C6",
"OX c #80668C",
"+X c #969696",
"@X c #B49082",
"#X c #BEA691",
"$X c #8D95B1",
"%X c #A5A7A9",
"&X c #B8B8B8",
"*X c #B6AFB2",
"=X c #DBAD84",
"-X c #D6B793",
";X c #E4AE81",
":X c #E9AF80",
">X c #EBB484",
",X c #EAB688",
"<X c #F1BE90",
"1X c #CCBAAE",
"2X c #F2C294",
"3X c #F6C79A",
"4X c #D5C4B5",
"5X c #FBD3A6",
"6X c #FED7AA",
"7X c #FFD9AD",
"8X c #F1CBA1",
"9X c #CACACA",
"0X c #D5D5D5",
"qX c #EDEEF5",
"wX c white",
"eX c #F1F1F1",
"rX c #EFEEEF",
/* pixels */
"            e e e e e                                                           ",
"              e y s s t e         e y X . .                                     ",
"                r i s s a a y       r r e * %                                   ",
"                e y i y a s a t 5 .   s s y w %                                 ",
"                e t y t u y i s t & . u s s y 3 X                               ",
"                  e y y u r u s s t % & y s i u & .                             ",
"                  e y r u u e 5 e r y X * y i e o o X X                         ",
"            . . . * u u e u y 5 e y y X * u u y y y d d %                       ",
"        d s y t y o . 3 u u i y 5 i i y % % e e t y y a s &                     ",
"      s s y r r r e r % * y i i i i e y u u r r e r r a i % .                   ",
"          y y t e r r w u y i y e e e y i u t u e y t y & . . . . . . . .       ",
"                r e e r y i y r 5 e e y u * & u t t t y * % & = * & = . .       ",
"                y u e r u e = & t r u t * 1 1 = t t e t r & * t t y & .         ",
"                  y e u 3 = > 1 3 t s * 1 v D > * i & & w & % * r * .           ",
"          s s y y r e e & 2 S L 2 u s X C x.c.S 2 e , + & w & % * .             ",
"            t d i i y r a w x L.c.o t X w.U.W.P.z.+ A.e.> % e & . . . . .       ",
"              r d f X 5 t % , K K S + . w.E.W.c.K S K c.6 & t t w e w .         ",
"                r X w.6 & 7 P X.+ + t.z.U.Q.Q.H.+ # M.f.2 . J f.y * .           ",
"                e . G.Z o 7 o.   .. T.W.Q.>X,XH.% #.&Xf.w.7 U j.% o             ",
"                  % J 1 > S x.  d = Y.2X3X3X2XH.5 | 9XG.y.6 7 J                 ",
"                    % . x j.R.  t t =X5X7X7X5XJ.t s 9XR.e., .                   ",
"                      X 2 w.;X#XO.O.8X7X7X7X7X-XO.O.4X;XU > .                   ",
"                      + O v G.>X5X7X7X7X7X7X7X7X7X5XQ.c.x @ -                   ",
"                  / / n l g x L.R.6X5X6X7X7X5X5X3XR.K.> h l q / ].              ",
"                ! oX).~.{ 2.g o # I.I.Q.,X>XW.I.c.X @ h &.m ~.). X/.            ",
"              W W ~. X).{ ,.4.z h , , L e.e.J , < h h 5.,.[ _.`.~.( /.          ",
"              ] J.k./.!.M 8.a.4.k ` o.G.R.Y.G.P 9 l &.9.,.' !.[.k.N.]           ",
"            6 c.>X>X..9 j 2.0.a.1.V ..}.$X$X}.[ n < j -.-.4 9 n.,XR.z.%.        ",
"            7 W.2X8XX.R 0 z 4.S.a.1.m ) ).)._ 4 g H | S h 0 E m.5X2XI.+         ",
"            7 H.<X@X/.|.+.c :.a.S.i.1.m _ E n <.c F.%X+.J +.|.[.@X,XH. .        ",
"              + z._ .X1X<Xh.; :.7.C.p.1.b l 2.u.1.8 +.$ H.3X*X|._ y.s           ",
"                . !.B.W.:Xh.8 Q ~ =.V.i.<.;.3.8.;.Q Q $ v.;XE.%.) s             ",
"                  o D x.l.x : *.;.Q ^.oX(.(.oX!.Y *.*.- v z.l.V  .              ",
"                    + 3 # : <.C.C.7.r.6.{.@.6.7.0.C.C.l > # >  .0X              ",
"                          @ j 0.D.Z.0...n.@.{ i.Z.D.8.: J.$X%.                  ",
"                            : ,.D.D.Z.XXo.@.OXS.S.p.*.; %X                      ",
"                            : -.i.C.i.n.V ] n.i.a.9.&.O $.                      ",
"                            @ h ;.d.N j Z V k N d.B j i                         ",
"                              $ ! ^.! $ +X$.8 ( _ W . &X                        ",
"                              $ Q *.Q $ +X#.8 T ;.W .                           "
};
