/* XPM */
static char *c024f86ebb85420bcaa13b9773003f6d991AFYMZa5KFzK3v[] = {
/* columns rows colors chars-per-pixel */
"40 40 218 2 ",
"   c None",
".  c #010101",
"X  c #080301",
"o  c #0C0C0B",
"O  c #06070B",
"+  c #140D0B",
"@  c #0F100F",
"#  c #16110A",
"$  c #090719",
"%  c #131313",
"&  c #1B1411",
"*  c #1C1C1C",
"=  c #181816",
"-  c #160E17",
";  c #2D0B03",
":  c #220A06",
">  c #24140E",
",  c #281A0F",
"<  c #3A1307",
"1  c #251B14",
"2  c #201F1F",
"3  c #261A11",
"4  c #361B17",
"5  c #340A10",
"6  c #1F201E",
"7  c #3A261A",
"8  c #312813",
"9  c #0B1539",
"0  c #121936",
"q  c #050E25",
"w  c #3F1D3C",
"e  c #1E2330",
"r  c #242523",
"t  c #262826",
"y  c #282827",
"u  c #2C2B2B",
"i  c #292727",
"p  c #302F2F",
"a  c #3D2C23",
"s  c #2E302F",
"d  c #2A2837",
"f  c #2F3130",
"g  c #323434",
"h  c #363A3A",
"j  c gray24",
"k  c #4B1505",
"l  c #481708",
"z  c #571909",
"x  c #550E0A",
"c  c #670701",
"v  c #770E04",
"b  c #69180B",
"n  c #761604",
"m  c #7B0A1C",
"M  c #651B16",
"N  c #432B1A",
"B  c #49271A",
"V  c #512D1F",
"C  c #4B321D",
"Z  c #4A3A0F",
"A  c #7D2611",
"S  c #491930",
"D  c #6D0E25",
"F  c #671925",
"G  c #75142D",
"H  c #791D34",
"J  c #482A22",
"K  c #453228",
"L  c #5A3A23",
"P  c #573422",
"I  c #4A253A",
"U  c #623626",
"Y  c #653D28",
"T  c #68312D",
"R  c #59402B",
"E  c #684129",
"W  c #74492D",
"Q  c #644737",
"!  c #794932",
"~  c #7C5231",
"^  c #7C5038",
"/  c #0A1347",
"(  c #0C1758",
")  c #1F1D5D",
"_  c #391D43",
"`  c #291758",
"'  c #2F1B44",
"]  c #1B2C57",
"[  c #272159",
"{  c #0D1C6D",
"}  c #0C1A67",
"|  c #151B68",
" . c #171D66",
".. c #0E1F73",
"X. c #221D64",
"o. c #16287A",
"O. c #162C7C",
"+. c #24327A",
"@. c #323874",
"#. c #401E40",
"$. c #50374D",
"%. c #6F3452",
"&. c #4E4B49",
"*. c #564D45",
"=. c #5F4F4B",
"-. c #5B5752",
";. c #6F5551",
":. c #6B615E",
">. c #7A5C65",
",. c #75476B",
"<. c #6E6E6E",
"1. c #656565",
"2. c #727275",
"3. c #766560",
"4. c #8D0C01",
"5. c #830801",
"6. c #90110B",
"7. c #A8150B",
"8. c #B01F0E",
"9. c #A50903",
"0. c #95250D",
"q. c #952A11",
"w. c #9E2811",
"e. c #8C270F",
"r. c #AC2611",
"t. c #B72619",
"y. c #A93116",
"u. c #99363A",
"i. c #843130",
"p. c #CD371E",
"a. c #C42F1C",
"s. c #CF3A21",
"d. c #844B33",
"f. c #885737",
"g. c #B5452A",
"h. c #926038",
"j. c #A06A3E",
"k. c #CB412C",
"l. c #D8492B",
"z. c #D84D35",
"x. c #CF4A38",
"c. c #E45A3D",
"v. c #E25537",
"b. c #8F3546",
"n. c #8F4F4C",
"m. c #85634C",
"M. c #8B684B",
"N. c #9C6449",
"B. c #986949",
"V. c #95705C",
"C. c #A66945",
"Z. c #AC7047",
"A. c #B97849",
"S. c #AA7657",
"D. c #86757C",
"F. c #8C7477",
"G. c #E55D43",
"H. c #C47F4C",
"J. c #EC6649",
"K. c #A89028",
"L. c #BD8D6B",
"P. c #B68768",
"I. c #BE916D",
"U. c #CD864F",
"Y. c #C58B5E",
"T. c #D6945F",
"R. c #D3915A",
"E. c #DC9A63",
"W. c #DC9D6A",
"Q. c #D69867",
"!. c #CA976E",
"~. c #D1A077",
"^. c #E1A26F",
"/. c #E5AB7C",
"(. c #E4A876",
"). c #143C94",
"_. c #153082",
"`. c #263D8A",
"'. c #1B4A9F",
"]. c #3A4388",
"[. c #364C94",
"{. c #1747A2",
"}. c #2E5AAD",
"|. c #3864B7",
" X c #4B518F",
".X c #634C81",
"XX c #5C6AA9",
"oX c #3F6FC2",
"OX c #4C7BCA",
"+X c #897884",
"@X c #828282",
"#X c #8B8C8B",
"$X c #989797",
"%X c #B89D93",
"&X c #B89182",
"*X c #B1A79E",
"=X c #A39FAB",
"-X c #A6A5A8",
";X c #B7B7B7",
":X c #BEB4AB",
">X c #D9AB86",
",X c #D4B093",
"<X c #EFBA8C",
"1X c #EBB384",
"2X c #E2B897",
"3X c #F2BF92",
"4X c #E9AF80",
"5X c #CAB4A5",
"6X c #F3C395",
"7X c #F5C89B",
"8X c #FED7AB",
"9X c #FFD9AD",
"0X c #FBD1A5",
"qX c #F0CCA3",
"wX c #CECECE",
"eX c gray84",
"rX c #EAEAEA",
"tX c white",
/* pixels */
"                                                                                ",
"              y p u r r                                                         ",
"              t y p g g t               O . .                                   ",
"                t y g g f f f y         r * = %                                 ",
"                  t u p s g g s y       g g u r %                               ",
"                  t u u i i s f p t @   y g g u r o                             ",
"                    t u u i r u g f u o = s g p y * .                           ",
"                    r s r y i r r r r u o * u u t . . . .                       ",
"            . . . O r p r r i i r r u p o * i t u u u g g * .                   ",
"        h h y t t * O X i i i u i r p u i % % r r t u p p u * .                 ",
"      h g g y y y r 2 2 + 2 u p p u u i u i t i r r r t u p 6 .                 ",
"            u y t r y y 2 i u p u i i r u p u y i r i y u 2 o . . . . . . .     ",
"                u r r 2 t u p u i r r 2 u u * * y y y i u * % @ % % & % O .     ",
"                  u r r t y i 1 * r r t u * > & * y t r y t * * u u u t %       ",
"                    u r u 2 & # & r r u r % B U # 6 p r * 6 = o 2 r t o         ",
"          u g g p u r r r o 7 Y P + u h + B C.A.U o y # . % r * O u .           ",
"            r s g p u p t s = L U.Z.. y @ ~ E.^.U.A.+ j.f.4 # 2 6 . . . . .     ",
"              t u g u o r i % 8 d.d.U + . f.W.(.U.d.U ! j.Y o t t 6 * * O r     ",
"                t r & f.1 * a %.;.> > f.h.Y././.P.> > 3.M.N X 8 B.u r % o       ",
"                  * & W., O J m.@Xj . Y.^./.1X1XL.. &.-XV.W C 7 Y.= @ O         ",
"                  * = m.% > Y S.$X&.% ~.6X6X6X6XI.= 1.;XS.C.Y 1 ;.X X           ",
"                    6 o . B A.>X#Xy t >X0X9X9X0X~.r 6 :X,XC.B O .               ",
"                      e O B S.2X*X*.*.qX9X9X9X9X5X*.*.:X2XN.4 O                 ",
"                      | o . W Q.6X8X9X9X9X9X9X9X9X9X8X<XT.Y . $ |               ",
"                     .b 4.n ; E E.<X8X8X9X9X9X9X9X8X<XT.C l n 4.x {             ",
"                  ..). .b 4.v l 1 K E.E.1X<X<X/.E.R.7 , l v 4.F [.OX_.          ",
"                K >.O.).[ 5 c v c k N N f.N.N.^ N N k c w.7.4.T OX`.....        ",
"              . C Y.D.D.$.- x 7.r.v 9 Q S.L.L.S.Q 9 b r.p.r.T @.[.D.>.d         ",
"              4 ! ^.>X~ N L B z b x _ >.+X-X=X+X;._ q.x.p.0.I +.>.6X^.~ N       ",
"                C.~.F.0 9 S.M.1 # Z k ' _.}.}._.#.q.x.J.t.v a $.C.8X6XW.L 2.    ",
"                f.M._.'.}.5X6XM.7 K.; n _ +.+.#.q.l.J.G.r.M K J e 5XqXY.R       ",
"                  q {.OX>X7X6XM.X : s.s.e.n n w.l.J.s.7.v &X$X9 '.o.&Xa 1.      ",
"                    O O Y A.R.~ $ ) 9.s.7.4.w.z.G.7.X.| | 9 Q %XOX{.o.q         ",
"                        + > , < b D ` `.XX@.[.XX].` m 6.5 i f.W.%X_.q 2.        ",
"                            . ; e.x.u.H  X|.,.b.b.u.x.z.e.< V C.R.$.O           ",
"                            . ; A g.c.%.%.XX,.a.c.G.v.g.z =.:.7 P 4 D.          ",
"                              : < k i.] H %.b.a.k.g.y.z =.-X;X<.<.<.            ",
"                                . . . . 5 D D 6.D F k &.;X                      ",
"                                      o / | _.`.{ ( f wX                        ",
"                                        % / S D ( @ rX                          "
};
