/* XPM */
static char *c2265849658f44d8e637735668fb40c7QXCYrx67bTTSxtDs[] = {
/* columns rows colors chars-per-pixel */
"40 40 178 2 ",
"   c None",
".  c #010101",
"X  c #0C0603",
"o  c #0C0905",
"O  c #010408",
"+  c #0B0C0B",
"@  c #040909",
"#  c #130803",
"$  c #0F100F",
"%  c #091211",
"&  c #0A1D1D",
"*  c #071616",
"=  c #131313",
"-  c #171917",
";  c #1A1A17",
":  c #1B1C1B",
">  c #181717",
",  c #13110D",
"<  c #2B0E06",
"1  c #3E0F02",
"2  c #251E0B",
"3  c #381407",
"4  c #201F1F",
"5  c #281915",
"6  c #311C13",
"7  c #1E201E",
"8  c #332C0D",
"9  c #3A330E",
"0  c #20211F",
"q  c #332214",
"w  c #3B3011",
"e  c #061033",
"r  c #3C1C3B",
"t  c #142323",
"y  c #232523",
"u  c #282727",
"i  c #272827",
"p  c #282827",
"a  c #262928",
"s  c #2C2B2B",
"d  c #302F2F",
"f  c #2E3130",
"g  c #323434",
"h  c #353939",
"j  c #490801",
"k  c #540200",
"l  c #510608",
"z  c #5E0D06",
"x  c #431104",
"c  c #4A1507",
"v  c #591A0D",
"b  c #531C0A",
"n  c #570F11",
"m  c #421E11",
"M  c #581C18",
"N  c #680B01",
"B  c #740C01",
"V  c #7B0A07",
"C  c #621C0B",
"Z  c #691B0C",
"A  c #68160A",
"S  c #781606",
"D  c #630F1C",
"F  c #601B13",
"G  c #6E1A19",
"H  c #7A1416",
"J  c #452C1A",
"K  c #622018",
"L  c #792514",
"P  c #401B37",
"I  c #6A0D24",
"U  c #6B1E23",
"Y  c #77182E",
"T  c #4D2435",
"R  c #4C2426",
"E  c #623426",
"W  c #7F3A2B",
"Q  c #7F2132",
"!  c #5B4117",
"~  c #6A5A1D",
"^  c #624126",
"/  c #7A472A",
"(  c #7D4632",
")  c #0A1844",
"_  c #0B1C58",
"`  c #291C4D",
"'  c #231C57",
"]  c #0D1C6F",
"[  c #121B67",
"{  c #0D1D71",
"}  c #0F306D",
"|  c #0E2274",
" . c #0F277D",
".. c #192C7B",
"X. c #0F3373",
"o. c #32356B",
"O. c #2C3672",
"+. c #4A324C",
"@. c #40345B",
"#. c #593E52",
"$. c #79585E",
"%. c #524262",
"&. c #604F69",
"*. c #7E6977",
"=. c #820300",
"-. c #8B0E02",
";. c #9A0707",
":. c #940801",
">. c #811406",
",. c #94180A",
"<. c #8C0E19",
"1. c #AD1D0C",
"2. c #A01809",
"3. c #B71D0E",
"4. c #9E250E",
"5. c #932C18",
"6. c #962714",
"7. c #9D381E",
"8. c #95371F",
"9. c #87260E",
"0. c #A22F17",
"q. c #BA2413",
"w. c #B92C1A",
"e. c #BC371A",
"r. c #B6361B",
"t. c #852837",
"y. c #C52E18",
"u. c #CA351F",
"i. c #CC3A24",
"p. c #874D34",
"a. c #85533C",
"s. c #955A3A",
"d. c #B84329",
"f. c #866E26",
"g. c #8F7C24",
"h. c #C64125",
"j. c #D4432A",
"k. c #D0482E",
"l. c #D94B32",
"z. c #D94E38",
"x. c #DE543D",
"c. c #DD5034",
"v. c #E75D3F",
"b. c #9D6242",
"n. c #AC6B43",
"m. c #AD7243",
"M. c #B87F5B",
"N. c #B67547",
"B. c #EA6346",
"V. c #EE684A",
"C. c #A88A30",
"Z. c #C7AF30",
"A. c #CC8954",
"S. c #D68F56",
"D. c #D79158",
"F. c #CC8F60",
"G. c #D89864",
"H. c #C59272",
"J. c #D59C71",
"K. c #DDA578",
"L. c #E5AA77",
"P. c #112D83",
"I. c #173386",
"U. c #143D97",
"Y. c #203682",
"T. c #15459C",
"R. c #1A469D",
"E. c #2C448C",
"W. c #1649A5",
"Q. c #6B688B",
"!. c #887786",
"~. c #EAB283",
"^. c #EFBD90",
"/. c #F3C598",
"(. c #F9CDA0",
"). c #FAD0A3",
"_. c #FDD5A9",
"`. c #E7C4A3",
/* pixels */
"                                    . . :           y y g h g u y               ",
"                                + y u y         y d h g f f p y                 ",
"                              $ y s g       = y d g g a d p y                   ",
"                              0 s s h s + > p g g s y s s y y                   ",
"                          7 7 p s s g = > 0 s s a y s s p y                     ",
"                      f f s p p s s d O y s u 0 y s y y y y =                   ",
"                    s g g g s s s y : = u d u y p s y y ; > = = = =             ",
"                  - g d s s p y y y . u s d u u d s y y + + : s s s y y         ",
"                O . y s p y y y a p o p y p s s d s u X u s y y y a d s y       ",
"        y y y y 0 X . y d s p y s y s d a y y p d d d d y y y u s               ",
"          s g d s y 7 s p y y s y 0 y s y y y p d d s y y y u                   ",
"            y y d s s y y y y y s y y s y y p p y y y s y s                     ",
"            = s y d s s u y y y y s y s y y p s y 7 + y y y y p                 ",
"        $ . O = y y g d s y y y y s y s y a p y y 7 - y u p s d g               ",
"        - = = = $ $ s f g s y y y p y p y y y y 0 y s a > a g g                 ",
"          y y y $ $ = : y s s p a 0 p y y y y p p a p p = y s s                 ",
"            y : y y $ $ : y s s p p p y y y p p s y ; y y y y                   ",
"              + y ; y s s y y y y d 0 y s y y y y y $ s y : :                   ",
"                . . ; a s f s y p s y y s a y y y d d s y @                     ",
"                  . . ; f g s s d s y s y s f s d d g y y $                     ",
"                    & @ y g s s h s 0 h a p g f y d g O &                       ",
"                  ] M : a ; = y s y y h a y s a : $ d & b `                     ",
"                | U.K S Z 6 $ = 0 + 0 d a % ; - + ; Z S S O.P.                  ",
"                { P.o.G -.Z c 3 $ * t t 7 & % < c v -.S @...|                   ",
"                +.$.I.o.U -.,.9.x m m q m m x Z 4.-.>.@...&.#.                  ",
"                ( G.!.E.T -.3.h.8.1 x 3 1 1 L d.y.:.K I.Q.H.b.                  ",
"                b.^._.*.R B 3.h.W . . 9 , 9 / d.y.:.c %.`./.M.s.                ",
"              p.D.(.).F.J k 3.5.X 8 ! ~ , C.~ v y.=.o N./.(.L.n.                ",
"              ( D.~.~.a.5 l 1.6.3 C.Z., . ~ E C y.V + E J.~.G.s.E               ",
"              2 A.L.A.6 ) P V ;.V O O @ O O j ;.=.M [ . m.K.D.^ .               ",
"                X o # . x r [ ..R.T.T.T.U.W.W.I.[ ' C . o o o                   ",
"                      O L 5.C G <.<.<.<.<.<.<.H F L r..                         ",
"                        < L e.h.x.x.x.x.x.x.x.k.e.6.3                           ",
"                        O N i.B.B.w.7.7.7.r.z.V.l.,..                           ",
"                        . k q.v.B.3.-.j B 1.l.B.i.V .                           ",
"                        . k ,.i.l.q.-.# N 1.j.k.3.B .                           ",
"                          < n Y t.I c # x D Q t.D 1 .                           ",
"                          . e  . .| .   . _  . ._ .                             ",
"                            ) W.W.T.O   . } W.W.X..                             ",
"                                                                                "
};
