/* XPM */
static char *a66779f31c674ac7cb136cb932aead726EG19ciKWmXlig5Y[] = {
/* columns rows colors chars-per-pixel */
"40 40 214 2 ",
"   c None",
".  c #030302",
"X  c #0D0D0C",
"o  c #070606",
"O  c #120B07",
"+  c #140E0A",
"@  c #190501",
"#  c #0F100F",
"$  c #1D110B",
"%  c #19150A",
"&  c #050917",
"*  c #0C1016",
"=  c #131413",
"-  c #171817",
";  c #1C1C1B",
":  c #171716",
">  c #230901",
",  c #3A0D02",
"<  c #3D1407",
"1  c #270D18",
"2  c #2B1B14",
"3  c #201F1F",
"4  c #261916",
"5  c #341D16",
"6  c #311E18",
"7  c #2C0E15",
"8  c #1F211F",
"9  c #26211D",
"0  c #352315",
"q  c #3B2518",
"w  c #070C25",
"e  c #0C132C",
"r  c #3B173A",
"t  c #242523",
"y  c #272827",
"u  c #282827",
"i  c #272928",
"p  c #2D2C2B",
"a  c #2B2424",
"s  c #302E2B",
"d  c #392C27",
"f  c #2F3131",
"g  c #2E343E",
"h  c #313332",
"j  c #353939",
"k  c #3E3B39",
"l  c #3D352D",
"z  c #480400",
"x  c #590802",
"c  c #481506",
"v  c #581706",
"b  c #57121A",
"n  c #610A04",
"m  c #681B06",
"M  c #791C08",
"N  c #780B1A",
"B  c #761918",
"V  c #43251A",
"C  c #492818",
"Z  c #4B361A",
"A  c #512E1F",
"S  c #78200E",
"D  c #6D2315",
"F  c #4A1927",
"G  c #571728",
"H  c #471D34",
"J  c #6D0D27",
"K  c #72132C",
"L  c #482E25",
"P  c #562E22",
"I  c #463527",
"U  c #593924",
"Y  c #522A39",
"T  c #6F2F20",
"R  c #643B24",
"E  c #6F2A37",
"W  c #764C2D",
"Q  c #72442C",
"!  c #784635",
"~  c #6D5038",
"^  c #0B1759",
"/  c #1F1B5E",
"(  c #10184D",
")  c #361C58",
"_  c #231D4F",
"`  c #1A2147",
"'  c #33274C",
"]  c #0E1C6E",
"[  c #261B60",
"{  c #162962",
"}  c #152777",
"|  c #0F267A",
" . c #242968",
".. c #3C3669",
"X. c #393475",
"o. c #262F75",
"O. c #46194B",
"+. c #47385C",
"@. c #4E3142",
"#. c #6C3053",
"$. c #503C75",
"%. c #35407B",
"&. c #484847",
"*. c gray33",
"=. c #5A4553",
"-. c #615041",
";. c #6D5254",
":. c #574867",
">. c #5A547B",
",. c #4A4C76",
"<. c #686767",
"1. c #747474",
"2. c #800D02",
"3. c #8B0E01",
"4. c #861102",
"5. c #8A1404",
"6. c #9F1A09",
"7. c #8F0B09",
"8. c #B21A0D",
"9. c #B21B11",
"0. c #962E18",
"q. c #912B14",
"w. c #B72612",
"e. c #A53117",
"r. c #8C3136",
"t. c #BF2F20",
"y. c #A43A3A",
"u. c #C22B17",
"i. c #C73019",
"p. c #CB3B24",
"a. c #D03C22",
"s. c #854E35",
"d. c #835434",
"f. c #895838",
"g. c #985D3B",
"h. c #BA482D",
"j. c #99663B",
"k. c #A2633E",
"l. c #C64125",
"z. c #D64527",
"x. c #D04B35",
"c. c #E4593B",
"v. c #8D3A4E",
"b. c #8D5349",
"n. c #88674C",
"m. c #986344",
"M. c #8A6956",
"N. c #9B725A",
"B. c #A46B45",
"V. c #B57649",
"C. c #A97457",
"Z. c #B77D59",
"A. c #A96E4B",
"S. c #8F7672",
"D. c #C37E4B",
"F. c #ED6749",
"G. c #B59F2B",
"H. c #BF8554",
"J. c #AB8674",
"K. c #C88958",
"L. c #D18D57",
"P. c #D7945D",
"I. c #C6814D",
"U. c #C39168",
"Y. c #D99966",
"T. c #C58C65",
"R. c #DEA577",
"E. c #E3A573",
"W. c #E7AE7B",
"Q. c #E5A877",
"!. c #14348A",
"~. c #1F3C8B",
"^. c #173D92",
"/. c #293680",
"(. c #15429A",
"). c #1C4DA6",
"_. c #3557A8",
"`. c #2959B0",
"'. c #3363B9",
"]. c #545896",
"[. c #4F4F8A",
"{. c #635180",
"}. c #4D69A9",
"|. c #7172A7",
" X c #3F71C4",
".X c #4577CA",
"XX c #9B9A99",
"oX c #8E8E8E",
"OX c #AE948C",
"+X c #9FA09F",
"@X c #8795B9",
"#X c #A3A3A3",
"$X c #BCBCBC",
"%X c #CBAE8D",
"&X c #D6A684",
"*X c #D0B08F",
"=X c #CFB190",
"-X c #D0B099",
";X c #E5AE81",
":X c #ECB486",
">X c #EEBA8C",
",X c #E6B992",
"<X c #D6BCA7",
"1X c #F4C396",
"2X c #F4C598",
"3X c #FCD3A6",
"4X c #FED7AB",
"5X c #FFD9AD",
"6X c #F3D0AA",
"7X c #F0CBA2",
"8X c #D6D6D6",
"9X c #D1CCC9",
"0X c white",
"qX c #F6F6F6",
/* pixels */
"                                                                                ",
"            u p p t t                                                           ",
"              u p f h i t             o .                                       ",
"                p h h f f f p         t 3 ; =                                   ",
"                t p p p f j f u ; .   h h p 3 #                                 ",
"                t p p p u i f h i =   y j h p 3 #                               ",
"                  t p p u t i h f y = = p f s t = .                             ",
"                  t p t u u t 3 t y p o t p p 3 X o # =                         ",
"            o o X ; y y t u p t t f p X 3 t y p p f j j #                       ",
"      j j h p p p . . 3 u u p p y s p p X = 9 t u p p p j #                     ",
"      h p p t t t p p X 3 p p s p s y p p p y t t t t s f o                     ",
"            p p t t t y p p s p t t t i p p p u y p p p X . . . . . . . .       ",
"                u t t t i p p y t t t p u = : p p y u s ; - 3 t t 3 ; .         ",
"                  p t u p ; # : u t u y % 5 2 = y u t u y = ; y u t #           ",
"                p u t y - 4 q 5 : p h - 5 s.Q 5 : u # # 8 - = ; t =             ",
"          p h h p u u t ; 6 R f.U ; h o W K.Z.d.I 4 U 5 = 9 = = # .             ",
"            p h f f 9 y i - C V.g.4 ; . j.E.E.I.f.C A.j.+ - y - X X o . -       ",
"              u f 9 0 9 t : L W P P 0 0 V.R.E.m.P U b.D.$ = I l t 8 - o         ",
"                8 . I.q = L M.|.= O L.P.W.:X:Xn.o f XXT 2 o f.;.t = .           ",
"                8 . J.q o V S.<X1.+ ;X:X>X:X:Xn.p +X9XQ I.0 N.~ . .             ",
"                  t # . V j.&X+Xy s ;X3X4X4X1XN.t &.9XK.d.$ o 9                 ",
"                    t o L H.<X#Xp l 6X5X5X5X4XJ.p *.9XW.s.$ *.                  ",
"                    { & O W Q.*X%X=X5X5X5X5X5X7X%X*X,XY.q o ` ].                ",
"                  /.H n x C f.E.2X5X5X5X5X5X5X5X3X:XP.A c n b '                 ",
"                | _...D 3.x C Q n.W.W.1X2X2X:XW.U.~ U z M 3.G  .!.              ",
"              ] | _.'.E 3.6.M , c W W C.Z.H.m.W U , z 3.n F  .!.%.=.            ",
"              ( :.:.}.+.B w.i.6.v w V b.N.N.~ 9 1 3.8.3.@ _ ,.>.M.m.o           ",
"              U Y.>X:.~.Y 6.z.t.T ' N.OX<X-XJ.;.H N 0.v 5 C d.T.Q.m.4           ",
"            V P.>X5XK...F M p.F.p.M / ^.}.`.!.r c % . 4 I.I & ;.R.T.!           ",
"            q Y.5X6Xt P 7 x t.F.F.a.S / (.} H c Z G.+ ;X3X}.).!.:.V.!           ",
"              q &X} (.e XXZ.5.9.z.F.z.M m D 0.z.q.O % W.4X,X@X'.{ p             ",
"              * o.). XOX-._ /  .O.8.F.l.5.3.w.w.B ( + L.P.m.h * g               ",
"                w | OXR.s.9 7 7.J ) [.|.X.[.].$.O.N z 0 q 4 1.$X                ",
"                o @.K.B.L < r.x.x.v.v.v.].'.$.E y.p.m . oX#X                    ",
"                  5 U q > > b h.c.c.c.t.[.>.#.v.x.e.m .                         ",
"                  o o .     @ m e.h.p.t.#.r.Y @.T , < <.                        ",
"                              @ c G J K K G 1 = k &.*.                          ",
"                                & ^ ] X.} ] e <.                                ",
"                                  o ] 7.) e 1.                                  ",
"                                                                                "
};
