/* XPM */
static char *_8852e0cc590485df6096037da5af28fJ3Zp7EZQzUSC1bx8[] = {
/* columns rows colors chars-per-pixel */
"40 40 181 2 ",
"   c None",
".  c #010101",
"X  c #070808",
"o  c #0C0C0C",
"O  c #0B0704",
"+  c #170A06",
"@  c #0F100F",
"#  c #1C110B",
"$  c #17100C",
"%  c #131313",
"&  c #1C1612",
"*  c #161817",
"=  c #1A1917",
"-  c #171918",
";  c #1B1C1B",
":  c #040616",
">  c #220501",
",  c #350E03",
"<  c #25140F",
"1  c #26180E",
"2  c #301409",
"3  c #310C1A",
"4  c #201F1F",
"5  c #2F1B17",
"6  c #3B1A16",
"7  c #1F201F",
"8  c #2F2015",
"9  c #21211F",
"0  c #2D241C",
"q  c #31251B",
"w  c #3B261E",
"e  c #040B26",
"r  c #060E36",
"t  c #071038",
"y  c #131B3E",
"u  c #211A27",
"i  c #2E1331",
"p  c #0F203E",
"a  c #232423",
"s  c #272827",
"d  c #282827",
"f  c #2B2B2A",
"g  c #282829",
"h  c #3A2E23",
"j  c #363029",
"k  c #2E3130",
"l  c #323433",
"z  c #363939",
"x  c #3E3E3E",
"c  c #43140C",
"v  c #541506",
"b  c #450F15",
"n  c #580901",
"m  c #6E0400",
"M  c #790400",
"N  c #651904",
"B  c #781306",
"V  c #781919",
"C  c #46271C",
"Z  c #7F2512",
"A  c #581629",
"S  c #58143C",
"D  c #501033",
"F  c #461B28",
"G  c #63102A",
"H  c #422820",
"J  c #4D2E24",
"K  c #502023",
"L  c #463729",
"P  c #453C35",
"I  c #4C423F",
"U  c #554537",
"Y  c #6B472A",
"T  c #67432D",
"R  c #77472E",
"E  c #7D4933",
"W  c #785438",
"Q  c #10185C",
"!  c #0A1657",
"~  c #2F1E47",
"^  c #0A224E",
"/  c #2C314F",
"(  c #0B1961",
")  c #121F65",
"_  c #0D1D71",
"`  c #1D2267",
"'  c #112F66",
"]  c #0F267B",
"[  c #182A78",
"{  c #253474",
"}  c #2F2D66",
"|  c #48184A",
" . c #55274D",
".. c #682747",
"X. c #244075",
"o. c #4E4E4E",
"O. c #5D5D5D",
"+. c #664950",
"@. c #424277",
"#. c #5F5475",
"$. c #625A7C",
"%. c #6D6D6D",
"&. c gray40",
"*. c #726D69",
"=. c #787471",
"-. c #850400",
";. c #9B0700",
":. c #821507",
">. c #9F1708",
",. c #9E1616",
"<. c #8D291D",
"1. c #BA2010",
"2. c #953D3F",
"3. c #92322D",
"4. c #A32421",
"5. c #CF391E",
"6. c #CA3520",
"7. c #844C33",
"8. c #885437",
"9. c #995E3B",
"0. c #A04432",
"q. c #97653C",
"w. c #DC4C2E",
"e. c #93414A",
"r. c #846246",
"t. c #A47E5F",
"y. c #A57657",
"u. c #997968",
"i. c #AE8768",
"p. c #BA8C69",
"a. c #A6897A",
"s. c #CB864F",
"d. c #C38455",
"f. c #D48D54",
"g. c #D48F58",
"h. c #D8935B",
"j. c #C49876",
"k. c #E1A36F",
"l. c #E5A978",
"z. c #E9B17F",
"x. c #102D83",
"c. c #13348B",
"v. c #153885",
"b. c #143B93",
"n. c #323F86",
"m. c #14409A",
"M. c #1F4AA2",
"N. c #2658B0",
"B. c #3B6ABB",
"V. c #41538D",
"C. c #676285",
"Z. c #466DBA",
"A. c #707BA5",
"S. c #6A74A6",
"D. c #7BA1DE",
"F. c #8B8C8B",
"G. c #BBA183",
"H. c #8D95AF",
"J. c #A2A2A2",
"K. c gray72",
"L. c #DEB99A",
"P. c #CDA787",
"I. c #E8AF80",
"U. c #EAB284",
"Y. c #EDB88B",
"T. c #F4C497",
"R. c #F7CA9D",
"E. c #F9CEA1",
"W. c #FED6AA",
"Q. c #FFD9AD",
"!. c #F9D1A7",
"~. c #E1C7AA",
"^. c #A1A7C8",
"/. c gray82",
"(. c #C0D1EB",
"). c #D9DAE0",
"_. c #E6E6E6",
"`. c #EFF0F6",
"'. c #F3F3F3",
"]. c #FEFEFE",
"[. c #E5EDF9",
/* pixels */
"                                                                                ",
"                                                                                ",
"                                    X . X O X O X . . . .                       ",
"                                . . % a f z z f a . .                           ",
"                              . * a a l z f f a . .                             ",
"                  .       . . * s f l z f s d . .     . . . . . . .             ",
"                X = . .   . - a d l l f a s s .   . . * ; a a = .               ",
"                X 7 * . . - s a a l k a a a f ; . * a f z ; o X                 ",
"                o d 4 . * s s a a f f a s f k d * s l f ; o                     ",
"              o ; k s * d s a a d f f d a d f d d s f f a %                     ",
"              @ s f s s s a a a f d d f s s f a d d f ; 9 9 %                   ",
"              o s f a d a a a s d d f f d s a a a f d o o 7 u @                 ",
"              o s f s a a a a d d d f d s f 9 * a d g * O o = % .               ",
"              o s f f s a a a f d d d a a s = < - a f d o . . . . .             ",
"              o s f a f a f a d a a f a 9 = < 7.# a l l %                       ",
"            . o s d u j 9 f X 9 % % d f = + 7.f.7.d f l %                       ",
"          . . o 9 ; X f 9 f o 7 % % f l 7 $ R f.f.L a l *                       ",
"    . . . . @ a a ; X 9 . 7 f o C 6 % f s . # f.U.g.L g @                       ",
"    . . % 7 9 * X o s a % X 7 a = Y T . f %.& z.U.g.8 O                         ",
"      . . * % X o a a 7 % i.0 7 @ C 9.i.F.k j U.U.z.0                           ",
"        . X o ; ; 7 o a 7 d.p.h % & +.T.J.f I !.U.Y.q                           ",
"            X o o @ - 9 o J U 8.y.t.j.!.~.j.G.Q.R.Y.q                           ",
"            . . . . @ @ . C J 7.d.l.T.Q.Q.Q.Q.Q.Q.k.8                           ",
"              . . . . . o C H H E d.z.R.Q.Q.Q.R.z.W =.                          ",
"                . % o.%.y y b c C Y 8.t.j.j.p.r.R *./.                          ",
"                    `.^.x.x.S :.v u p / +.8.J O.O._.                            ",
"                    ^._ b.N.c.| B D ` m.V.u.U K.].                              ",
"                    } } @.Z.M.] G B i ! { S.a.o '.                              ",
"                    R f.E.@.` ` F , $ & 2 K v.o '.                              ",
"                    $ s.U.h.8.E 5 w y.l.q.: Q o '.                              ",
"                      + s.R.Y.U.$.c.H.T.y.+ v o '.                              ",
"                      O s.U.E.W.C.c.B.H.i.> -.X '.                              ",
"                      v 1 s.z.Y.P.$.b.{ a ` { o '.                              ",
"                      B M w w I P 4 e 3 A n.e.[ D.[.                            ",
"                      > B m m <.0.3.B -.,.2.<.y (.                              ",
"                      . N ;.1.5.w.6.>.:.V  .~ ' A.                              ",
"                        , D ..4.3.D n   6 r t ^ t /.                            ",
"                        . ( x.| i e       I &.%.%.`.                            ",
"                        . ( m.] e           ].].].                              ",
"                                                                                "
};
