/* XPM */
static char *f297671f403b4e3b9aa902b6e241295ffGkam1pBONuXerZQ[] = {
/* columns rows colors chars-per-pixel */
"40 40 176 2 ",
"   c None",
".  c #010101",
"X  c #0C0806",
"o  c #05060C",
"O  c #0B0C0B",
"+  c #090605",
"@  c #140E0D",
"#  c #190904",
"$  c #0F100F",
"%  c #1B120C",
"&  c #14110E",
"*  c #070813",
"=  c #1D0D1C",
"-  c #160910",
";  c #141414",
":  c #1C1715",
">  c #1B1916",
",  c #1B1C1B",
"<  c #2D0500",
"1  c #3D0300",
"2  c #26190F",
"3  c #23130E",
"4  c #241612",
"5  c #221A15",
"6  c #291E1A",
"7  c #39170A",
"8  c #1E201F",
"9  c #20201F",
"0  c #36291F",
"q  c #050B26",
"w  c #281C32",
"e  c #1D2332",
"r  c #232423",
"t  c #292727",
"y  c #272827",
"u  c #282827",
"i  c #2B2B2A",
"p  c #262828",
"a  c #3B2F25",
"s  c #302F2F",
"d  c #373028",
"f  c #2F3232",
"g  c #323232",
"h  c #363A3A",
"j  c #4A0B07",
"k  c #571607",
"l  c #541608",
"z  c #5D1B1D",
"x  c #7E0B01",
"c  c #621102",
"v  c #780B1F",
"b  c #751304",
"n  c #472718",
"m  c #5A291B",
"M  c #50321F",
"N  c #561925",
"B  c #581825",
"V  c #760E23",
"C  c #5B2D26",
"Z  c #4A3629",
"A  c #583528",
"S  c #5F2639",
"D  c #693C29",
"F  c #713D2C",
"G  c #762230",
"H  c #5B4232",
"J  c #584439",
"K  c #6F4B2D",
"L  c #70422B",
"P  c #7A512F",
"I  c #674637",
"U  c #714D30",
"Y  c #7D5636",
"T  c #101C4C",
"R  c #0F1B5D",
"E  c #081344",
"W  c #2E1547",
"Q  c #142C5C",
"!  c #0D1D6B",
"~  c #161B61",
"^  c #0F1E71",
"/  c #1F2A6E",
"(  c #0E2276",
")  c #0F287E",
"_  c #16297B",
"`  c #2D397D",
"'  c #421446",
"]  c #402A40",
"[  c #65274C",
"{  c #402D69",
"}  c #535150",
"|  c #454645",
" . c #66594F",
".. c #795C45",
"X. c #734E52",
"o. c #45597C",
"O. c #705B6D",
"+. c #635A7D",
"@. c #6C6560",
"#. c #717171",
"$. c #820B04",
"%. c #8E0801",
"&. c #940A02",
"*. c #981709",
"=. c #A40802",
"-. c #B4190D",
";. c #872A1D",
":. c #BC381C",
">. c #821425",
",. c #993F29",
"<. c #C62F19",
"1. c #C53D22",
"2. c #874D35",
"3. c #92633E",
"4. c #DE4F31",
"5. c #CF573B",
"6. c #DC523B",
"7. c #D94628",
"8. c #895742",
"9. c #886547",
"0. c #9F7B5B",
"q. c #976B59",
"w. c #AC6C43",
"e. c #A27456",
"r. c #B57346",
"t. c #83597D",
"y. c #F16D4F",
"u. c #9E8476",
"i. c #B68A66",
"p. c #B18D7D",
"a. c #AB8767",
"s. c #C8824D",
"d. c #CF8953",
"f. c #D28E56",
"g. c #D79159",
"h. c #C98D60",
"j. c #DD9E69",
"k. c #C49777",
"l. c #CE9F7C",
"z. c #DFA06D",
"x. c #DEAA7D",
"c. c #E1A36F",
"v. c #E3A775",
"b. c #E7AD7A",
"n. c #E8B07D",
"m. c #112C82",
"M. c #1B3589",
"N. c #183C85",
"B. c #143F99",
"V. c #213C8D",
"C. c #2E3D88",
"Z. c #214297",
"A. c #294589",
"S. c #1848A3",
"D. c #3869BD",
"F. c #4F5B9B",
"G. c #4D6098",
"H. c #4E74B9",
"J. c #6578A9",
"K. c #8E8D8C",
"L. c #8C8493",
"P. c #9C9C9C",
"I. c #959595",
"U. c #BEA385",
"Y. c #B7B7B7",
"T. c #E6AF82",
"R. c #EAB485",
"E. c #DCBBA0",
"W. c #F3C396",
"Q. c #F7C99C",
"!. c #C5C1BE",
"~. c #F9CEA1",
"^. c #FCD6AA",
"/. c #FFD9AD",
"(. c #C6C6C6",
"). c #D5CDC6",
/* pixels */
"                                                                                ",
"                                      . . . . . . . . . . .                     ",
"                                  . . , 8 s f i r O . .                         ",
"                                + 8 , i g g s y ; . .                           ",
"                    .       . + , i i h g y i ; . .     . . . . . .             ",
"                  ; O .     o , y i g f y r i ; . . . O > , r , .               ",
"                . ; 8 O . O 8 y r y h y r r i 9 O $ , p g p O O                 ",
"                . ; r ; O , u y r r g r 9 u i i , r s f r ;                     ",
"                $ r i 9 , u y 9 r i s i r y i i i r i i r ;                     ",
"              . ; i i u u y r r r i t s i r i p r i p r , r ;                   ",
"              . ; i u r r r r r u u i i u u p r r i i > o > r ;                 ",
"              . > i i r r r r r i r i i r i r , , y u , O o ; > .               ",
"              . ; i i i r r t r s r i r r p , 4 > , i s > . . . . .             ",
"              . ; i i r i r t , i > i i r > 4 L M 6 i g r .                     ",
"              . ; p r r i r r o i . r i u + C r.w.Z r f r .                     ",
"            . + , r $ ; r r r @ 9 % , g s O n w.g.9.d i r .                     ",
"      . . o o , 8 8 $ ; ; O r r @ C 2 , i 8 o 3.v.j.Y 9 , .                     ",
"      . . ; r 9 O . , y 8 ; : 9 t X s.2 , #.r 0.R.z.K . .                       ",
"        . . > O . , y r , J i.@ , X F d.).| p a.R.R....                         ",
"          . . ; r r & & r H g.i.X r . x.).} g U.W.R....                         ",
"              . . . ; r ; O > a f.T.T.^./.^./././.W....                         ",
"            . . . . . . . 3 F F 2.g.R.^./././././.n.K .                         ",
"                . . . . + ; 5 , 0 2.f.R.^././.R.c.U %                           ",
"                          ! W $.l # a a 8.8.8.Z 4 @.                            ",
"                        m.B.M.' %.l R N.A.q.n K.!.(.                            ",
"                      ^ ( Z.D.M.' %.v _ ) J.u. .Y.                              ",
"                    q t X.O.M.m.~ 1 <.V N ` G.e P.                              ",
"                    . M d.l.X.] q . l 1 $.N / q P.                              ",
"                    + H b.~.x.q.E Q U 9.l x N - P.                              ",
"                    . I n.Q.E.+.A.L.R.z.> *.*.< I.                              ",
"                      Z e.v.p._ H.Q./.g.% S [ = K.                              ",
"                        n P H T o.k.k.Y k ` { = K.                              ",
"                        k 1 1 1 j ;.,.m 1.F.G < I.                              ",
"                        b $.&.=.-.-.4.y.7.t.S A Y.                              ",
"                          7 c *.:.<.6.5.:.$.I !.                                ",
"                            # k z >.>.z k # !.                                  ",
"                              * ( S.C.^ o                                       ",
"                              * ! N.%.~ *                                       ",
"                                . + + i r                                       ",
"                              o r i h r                                         "
};
