/* XPM */
static char *_510eccbdf1b4650b8fca241874d6d98Sw89lI55TfozJqF6[] = {
/* columns rows colors chars-per-pixel */
"40 40 190 2 ",
"   c None",
".  c #010101",
"X  c #0B0303",
"o  c #0E0906",
"O  c #04050B",
"+  c #0B0B0B",
"@  c #160C09",
"#  c #190B08",
"$  c #0F100F",
"%  c #1C110D",
"&  c #04091B",
"*  c #030617",
"=  c #160D1B",
"-  c #121312",
";  c #1B1514",
":  c #171917",
">  c #1B1C1B",
",  c #181618",
"<  c #2A0A04",
"1  c #230901",
"2  c #390F03",
"3  c #22150D",
"4  c #25190F",
"5  c #251914",
"6  c #2E1D12",
"7  c #201E1C",
"8  c #211511",
"9  c #381E16",
"0  c #311A13",
"q  c #1F211F",
"w  c #20211F",
"e  c #28211D",
"r  c #39231C",
"t  c #0F142B",
"y  c #07123D",
"u  c #0E1D3F",
"i  c #050B2D",
"p  c #242523",
"a  c #272827",
"s  c #282827",
"d  c #2C2B2B",
"f  c #282727",
"g  c #312E2F",
"h  c #3F3226",
"j  c #2E3037",
"k  c #323333",
"l  c #353939",
"z  c #322C35",
"x  c #5B0C01",
"c  c #441102",
"v  c #48190B",
"b  c #511202",
"n  c #401310",
"m  c #551A14",
"M  c #47091C",
"N  c #600901",
"B  c #6F1B03",
"V  c #7F1103",
"C  c #771508",
"Z  c #492B1D",
"A  c #5F112D",
"S  c #5E0F31",
"D  c #451C34",
"F  c #491F3A",
"G  c #461A21",
"H  c #660E28",
"J  c #651321",
"K  c #6C1C38",
"L  c #4D2B20",
"P  c #542C20",
"I  c #49382A",
"U  c #483427",
"Y  c #563827",
"T  c #633628",
"R  c #643B29",
"E  c #782E33",
"W  c #7A442F",
"Q  c #7C4A34",
"!  c #784633",
"~  c #6C4E35",
"^  c #09134C",
"/  c #0B1857",
"(  c #191945",
")  c #37154F",
"_  c #17254B",
"`  c #17265A",
"'  c #0D1C6D",
"]  c #171C67",
"[  c #0E1F73",
"{  c #102166",
"}  c #182977",
"|  c #27286C",
" . c #222670",
".. c #3C3B78",
"X. c #661F42",
"o. c #5F2448",
"O. c #412A5C",
"+. c #503750",
"@. c #482E49",
"#. c #762C45",
"$. c #525352",
"%. c #464645",
"&. c #604557",
"*. c #745C48",
"=. c #47466A",
"-. c #7E5D62",
";. c #6B5467",
":. c gray40",
">. c #8C0B03",
",. c #841102",
"<. c #851517",
"1. c #900507",
"2. c #A31106",
"3. c #B51C11",
"4. c #9C2C12",
"5. c #9B2A1A",
"6. c #C13322",
"7. c #885735",
"8. c #96593A",
"9. c #854F3A",
"0. c #B74736",
"q. c #92643E",
"w. c #A16A3E",
"e. c #DC4E34",
"r. c #DE573E",
"t. c #D04328",
"y. c #81374F",
"u. c #A33F46",
"i. c #A0424A",
"p. c #89664A",
"a. c #81644B",
"s. c #97704F",
"d. c #A16D42",
"f. c #AC6D43",
"g. c #A06747",
"h. c #AC7F59",
"j. c #A67656",
"k. c #BB794B",
"l. c #8A7570",
"z. c #B28057",
"x. c #998474",
"c. c #B28865",
"v. c #BC8C65",
"b. c #A4886D",
"n. c #CC8753",
"m. c #CB8A59",
"M. c #D58D54",
"N. c #D89A68",
"B. c #DDA16F",
"V. c #DCA97D",
"C. c #E0A16D",
"Z. c #E7AD7D",
"A. c #E1A574",
"S. c #102A80",
"D. c #1A398E",
"F. c #123A84",
"G. c #163E96",
"H. c #203B8A",
"J. c #17408A",
"K. c #14419B",
"L. c #31448B",
"P. c #3F508F",
"I. c #27478E",
"U. c #1647A2",
"Y. c #244FA6",
"T. c #3765B8",
"R. c #775881",
"E. c #5F6B99",
"W. c #5064A7",
"Q. c #6C7AA7",
"!. c #3E70C4",
"~. c #8D7B88",
"^. c #918F8D",
"/. c #A7ACBE",
"(. c #DFAC81",
"). c #D0B290",
"_. c #E7AF80",
"`. c #EBB485",
"'. c #EDB789",
"]. c #EFBB8D",
"[. c #E7B88D",
"{. c #F1BE91",
"}. c #F5C699",
"|. c #F6CEA4",
" X c #FACFA2",
".X c #FFD9AD",
"XX c #FFD9AD",
"oX c #FAD2A8",
"OX c #D4D1CE",
"+X c #E7D5C0",
/* pixels */
"                                        . . . . . . . . . . .                   ",
"                                    . X > q d d a p - . .                       ",
"                                . + : > d k k k d > X .                         ",
"                              . + > d d k k a d > O .     . . . . . .           ",
"                  + $         + > a g k k d p d - . .   X $ $ - - + .           ",
"                  + > + .   + q p a g l d q p d : + X $ $ d d q 7 -             ",
"                  $ p q . X q s a p d k p p p d s : - a g l g + .               ",
"                + - d q . q d p p q p d p q d d g s p k k p O                   ",
"              . $ p g d q d a p p a d g d p p d s s d p a d d +                 ",
"              . - p d p d p p p p d d p d d p d s p s d a O p p +               ",
"              . - f d p p p p p p s s d g p d a p p p d p . + w w -             ",
"              . $ f d s p q p p s d a d s p d p : : p s p - . + - + .           ",
"              . - p d a a p p p s d p d p p p > 5 5 > a k f . . . . .           ",
"              . - p d p d p d p p p > d a p > 8 R Y > a k k X                   ",
"              . - p a q g p d + , > + p g p X P w.k.R p g l X                   ",
"            . . - p > X d p d - > > @ a k g o P w.M.d.s p l O                   ",
"      . . . . - p p > . q X > a - 0 Z o a l + . 7.B.B.s.p g .                   ",
"      . . : > p : O $ p p - + : p > Z 8.o o :.w p.Z.B.d.X +                     ",
"        . + > - . + q a p : a.U > ; 5 8.p.^.$.p s._.Z.z..                       ",
"          . + - - > q - q q z.j.U - ; U B.OX%.a b.}.`.c..                       ",
"            . + : - - - p : ~ p.~ ~ *.a.}.+Xx.l.). X}.c..                       ",
"              . . . X : > . 8 e Q m.Z.].XXXXXXXXXXoX}.z..                       ",
"            . . . . . . . . L T Y 7.m.`. XXXXXXXoX XV.7..                       ",
"                  . . . . = = ; ; Z 7.m._.|.|.|.[.N.7..                         ",
"                          ' ' H V v > > 7 W Q 9.r o o                           ",
"                        ' G.K. .H ,.G { D.I.j.Z o                               ",
"                      ' ' S.T.Y. .H ,.F S.S.Q.x.I                               ",
"                      +.l.-.P.D./ M 2.5.S D L.E.l .                             ",
"                    0 9.}.B.&.( = N 3.e.6.4.F } y .                             ",
"                    4 g..X'.! % < x C 0.e.e.4.F = .                             ",
"                    e n.}.'.h & * = 5 3 >.r.t.4.2 X % 5                         ",
"                    1 W n.V...G.D.;.k.R . 1.6.t.v r 8.w..                       ",
"                      @ W | G.!./.oX].f.. ] } H.( 9 8.w..                       ",
"                      3 @ * F.D.~.'.'.v.. m H.o.O._ % 4                         ",
"                      + ^ ^ ` _ z U I L b >.W.i.R.=.c                           ",
"                      O ' ' ` t O # c c B ,.y.6.u.E B                           ",
"                      O ^ y y & . 1 9 D D @.X.#.K J                             ",
"                        . . .       * / [ U...} / ^                             ",
"                                      * [ U.<.) i                               ",
"                                                                                "
};
