/* XPM */
static char *_77bbf1582b044f1ee4d045ffb26ef3cdnpXI2IxTB4LxZqL[] = {
/* columns rows colors chars-per-pixel */
"40 40 170 2 ",
"   c None",
".  c #010101",
"X  c #090605",
"o  c #0C0806",
"O  c #05060C",
"+  c #0B0C0B",
"@  c #190904",
"#  c #140E0D",
"$  c #0F100F",
"%  c #14110E",
"&  c #1B120C",
"*  c #070813",
"=  c #160910",
"-  c #1D0D1C",
";  c gray8",
":  c #1C1715",
">  c #1B1916",
",  c #1B1C1B",
"<  c #2D0500",
"1  c #3D0300",
"2  c #23130E",
"3  c #26190F",
"4  c #39170A",
"5  c #241612",
"6  c #221A15",
"7  c #291E1A",
"8  c #1E201F",
"9  c #20201F",
"0  c #36291F",
"q  c #050B26",
"w  c #1D2332",
"e  c #232423",
"r  c #292727",
"t  c #272827",
"y  c #282827",
"u  c #262828",
"i  c #2B2B2A",
"p  c #3B2F25",
"a  c #302F2F",
"s  c #373028",
"d  c #2F3232",
"f  c #323232",
"g  c #363A3A",
"h  c #4A0B07",
"j  c #571607",
"k  c #541608",
"l  c #5D1B1D",
"z  c #7E0B01",
"x  c #621102",
"c  c #751304",
"v  c #780B1F",
"b  c #472718",
"n  c #5A291B",
"m  c #50321F",
"M  c #561925",
"N  c #760E23",
"B  c #5B2D26",
"V  c #4A3629",
"C  c #583528",
"Z  c #5F2639",
"A  c #713D2C",
"S  c #762230",
"D  c #5B4232",
"F  c #584439",
"G  c #6F4B2D",
"H  c #70422B",
"J  c #7A512F",
"K  c #674637",
"L  c #714D30",
"P  c #7D5636",
"I  c #081344",
"U  c #101C4C",
"Y  c #0F1B5D",
"T  c #2E1547",
"R  c #142C5C",
"E  c #0D1D6B",
"W  c #161B61",
"Q  c #0F1E71",
"!  c #1F2A6E",
"~  c #0E2276",
"^  c #0F287E",
"/  c #16297B",
"(  c #2D397D",
")  c #421446",
"_  c #402A40",
"`  c #65274C",
"'  c #402D69",
"]  c #454645",
"[  c #535150",
"{  c #66594F",
"}  c #795C45",
"|  c #734E52",
" . c #45597C",
".. c #705B6D",
"X. c #635A7D",
"o. c #6C6560",
"O. c #717171",
"+. c #820B04",
"@. c #8E0801",
"#. c #940A02",
"$. c #981709",
"%. c #A40802",
"&. c #B4190D",
"*. c #872A1D",
"=. c #BC381C",
"-. c #821425",
";. c #993F29",
":. c #C62F19",
">. c #C53D22",
",. c #874D35",
"<. c #92633E",
"1. c #D94628",
"2. c #DE4F31",
"3. c #CF573B",
"4. c #DC523B",
"5. c #895742",
"6. c #886547",
"7. c #976B59",
"8. c #9F7B5B",
"9. c #AC6C43",
"0. c #B57346",
"q. c #A27456",
"w. c #83597D",
"e. c #F16D4F",
"r. c #9E8476",
"t. c #AB8767",
"y. c #B68A66",
"u. c #B18D7D",
"i. c #C8824D",
"p. c #CF8953",
"a. c #D28E56",
"s. c #D79159",
"d. c #DD9E69",
"f. c #C49777",
"g. c #CE9F7C",
"h. c #DFA06D",
"j. c #DEAA7D",
"k. c #E1A36F",
"l. c #E3A775",
"z. c #E7AD7A",
"x. c #E8B07D",
"c. c #112C82",
"v. c #183C85",
"b. c #1B3589",
"n. c #143F99",
"m. c #2E3D88",
"M. c #294589",
"N. c #214297",
"B. c #1848A3",
"V. c #3869BD",
"C. c #4F5B9B",
"Z. c #4D6098",
"A. c #4E74B9",
"S. c #6578A9",
"D. c #8E8D8C",
"F. c #8C8493",
"G. c #959595",
"H. c #BEA385",
"J. c #B7B7B7",
"K. c #E6AF82",
"L. c #EAB485",
"P. c #DCBBA0",
"I. c #F3C396",
"U. c #F7C99C",
"Y. c #C5C1BE",
"T. c #F9CEA1",
"R. c #FCD6AA",
"E. c #FFD9AD",
"W. c #C6C6C6",
"Q. c #D5CDC6",
/* pixels */
"                                                                                ",
"                    . . . . . . . . . . .                                       ",
"                        . . + e i d a 8 , . .                                   ",
"                          . . ; t a f f i , 8 X                                 ",
"            . . . . . .     . . ; i t f g i i , X .       .                     ",
"              . , e , > + . . . ; i e t d f i t , O     . + ;                   ",
"                + + u f u , $ + 9 i e e t g t e t 8 + . + 8 ; .                 ",
"                    ; e d a e , i i y 9 e f e e t y , + ; e ; .                 ",
"                    ; e i i e i i i t e i a i e 9 t y , 9 i e $                 ",
"                  ; e , e u i e u i e i a r i e e e t y y i i ; .               ",
"                ; e > O > i i e e u y y i i y y e e e e e y i ; .               ",
"              . > ; O + , y t , , e i e i i e i e e e e e i i > .               ",
"            . . . . . > a i , > 5 , u e e i e a e r e e i i i ; .               ",
"                    . e f i 7 m H 5 > e i i > i , r e i e i i ; .               ",
"                    . e d e V 9.0.B X y i e . i O e e i e e u ; .               ",
"                    . e i s 6.s.9.b + a f , & 9 # e e e ; $ e , X .             ",
"                    . , 9 P d.l.<.O 8 i , 3 B # e e + ; ; $ 8 8 , O O . .       ",
"                      . . G h.L.8.e O., 3 i.o r 9 : ; 8 t , . + 9 e ; . .       ",
"                        . } L.L.t.u ] Q.p.A o , # y.F , e t , . + > . .         ",
"                        . } L.I.H.f [ Q.j.. e o y.s.D e % % e e ; . .           ",
"                        . } I.E.E.E.R.E.R.K.K.a.p > + ; e ; . . .               ",
"                        . G x.E.E.E.E.E.R.L.s.,.A A 2 . . . . . . .             ",
"                          & L k.L.E.E.R.L.a.,.0 , 6 ; X . . . .                 ",
"                            o.5 V 5.5.5.p p @ k +.T E                           ",
"                            W.Y.D.b 7.M.v.Y k @.) b.n.c.                        ",
"                              J.{ r.S.^ / v @.) b.V.N.~ Q                       ",
"                                w Z.( M N :.1 W c.b...| r q                     ",
"                                q ! M +.1 k . q _ | g.p.m .                     ",
"                                = M z k 6.L R I 7.j.T.z.D X                     ",
"                              G.< $.$.> h.L.F.M.X.P.U.x.K .                     ",
"                              D.- ` Z & s.E.U.A./ u.l.q.V                       ",
"                              D.- ' ( j P f.f. .U D J b                         ",
"                              G.< S C.>.n ;.*.h 1 1 1 j                         ",
"                              J.C Z w.1.e.2.&.&.%.#.+.c                         ",
"                                Y.K +.=.3.4.:.=.$.x 4                           ",
"                                  Y.@ j l -.-.l j @                             ",
"                                      O Q m.B.~ *                               ",
"                                      * W @.v.E *                               ",
"                                      e i X X .                                 ",
"                                        e g i e O                               "
};
