/* XPM */
static char *_ad36847b0fe41f0f56a998f608ed89f2eQuldwBv44RhHuP[] = {
/* columns rows colors chars-per-pixel */
"40 40 177 2 ",
"   c None",
".  c #010101",
"X  c #0B0303",
"o  c #0E0906",
"O  c #04050B",
"+  c #0B0B0B",
"@  c #160C09",
"#  c #190B08",
"$  c #0F100F",
"%  c #1C110D",
"&  c #030617",
"*  c #04091B",
"=  c #160D1B",
"-  c #121312",
";  c #1B1514",
":  c #171917",
">  c #181618",
",  c #1B1C1B",
"<  c #230901",
"1  c #2A0A04",
"2  c #390F03",
"3  c #22150D",
"4  c #25190F",
"5  c #211511",
"6  c #251914",
"7  c #201E1C",
"8  c #311A13",
"9  c #381E16",
"0  c #1F211F",
"q  c #20211F",
"w  c #28211D",
"e  c #39231C",
"r  c #050B2D",
"t  c #0F142B",
"y  c #07123D",
"u  c #242523",
"i  c #282727",
"p  c #272827",
"a  c #282827",
"s  c #2C2B2B",
"d  c #312E2F",
"f  c #3F3226",
"g  c #322C35",
"h  c #323333",
"j  c #353939",
"k  c #5B0C01",
"l  c #441102",
"z  c #48190B",
"x  c #511202",
"c  c #47091C",
"v  c #551A14",
"b  c #600901",
"n  c #6F1B03",
"m  c #7F1103",
"M  c #771508",
"N  c #492B1D",
"B  c #461A21",
"V  c #5E0F31",
"C  c #451C34",
"Z  c #491F3A",
"A  c #660E28",
"S  c #651321",
"D  c #6C1C38",
"F  c #4D2B20",
"G  c #542C20",
"H  c #483427",
"J  c #49382A",
"K  c #563827",
"L  c #633628",
"P  c #643B29",
"I  c #782E33",
"U  c #7A442F",
"Y  c #6C4E35",
"T  c #784633",
"R  c #7C4A34",
"E  c #09134C",
"W  c #191945",
"Q  c #0B1857",
"!  c #37154F",
"~  c #17254B",
"^  c #17265A",
"/  c #0D1C6D",
"(  c #171C67",
")  c #0E1F73",
"_  c #102166",
"`  c #182977",
"'  c #27286C",
"]  c #222670",
"[  c #3C3B78",
"{  c #661F42",
"}  c #482E49",
"|  c #5F2448",
" . c #412A5C",
".. c #503750",
"X. c #762C45",
"o. c #464645",
"O. c #525352",
"+. c #745C48",
"@. c #604557",
"#. c #47466A",
"$. c #6B5467",
"%. c #7E5D62",
"&. c gray40",
"*. c #8C0B03",
"=. c #900507",
"-. c #841102",
";. c #851517",
":. c #A31106",
">. c #B51C11",
",. c #9C2C12",
"<. c #9B2A1A",
"1. c #C13322",
"2. c #854F3A",
"3. c #885735",
"4. c #96593A",
"5. c #B74736",
"6. c #A16A3E",
"7. c #D04328",
"8. c #DC4E34",
"9. c #DE573E",
"0. c #81374F",
"q. c #A33F46",
"w. c #A0424A",
"e. c #81644B",
"r. c #89664A",
"t. c #97704F",
"y. c #A06747",
"u. c #A16D42",
"i. c #AC6D43",
"p. c #BB794B",
"a. c #A67656",
"s. c #8A7570",
"d. c #B28057",
"f. c #998474",
"g. c #A4886D",
"h. c #B28865",
"j. c #BC8C65",
"k. c #CC8753",
"l. c #CB8A59",
"z. c #D58D54",
"x. c #D89A68",
"c. c #DDA16F",
"v. c #DCA97D",
"b. c #E7AD7D",
"n. c #102A80",
"m. c #123A84",
"M. c #1A398E",
"N. c #163E96",
"B. c #203B8A",
"V. c #14419B",
"C. c #27478E",
"Z. c #31448B",
"A. c #3F508F",
"S. c #1647A2",
"D. c #244FA6",
"F. c #3765B8",
"G. c #775881",
"H. c #5F6B99",
"J. c #5064A7",
"K. c #6C7AA7",
"L. c #3E70C4",
"P. c #8D7B88",
"I. c #918F8D",
"U. c #A7ACBE",
"Y. c #D0B290",
"T. c #E7AF80",
"R. c #EBB485",
"E. c #EDB789",
"W. c #E7B88D",
"Q. c #EFBB8D",
"!. c #F5C699",
"~. c #F6CEA4",
"^. c #FACFA2",
"/. c #FAD2A8",
"(. c #FFD9AD",
"). c #D4D1CE",
"_. c #E7D5C0",
/* pixels */
"                  . . . . . . . . . . .                                         ",
"                      . . - u p s s 0 , X .                                     ",
"                        . X , s h h h s , : + .                                 ",
"          . . . . . .     . O , s p h h s s , + .                               ",
"          . + - - $ $ X   . . - s u s h h d p , +         $ +                   ",
"            - 7 0 s s $ $ X + : s u 0 s j d p u 0 +   . + , +                   ",
"              . + d j d p - : a s u u u h s u p a 0 X . 0 u $                   ",
"                  O u h h u a d s s 0 u s u 0 u u s 0 . 0 s - +                 ",
"                + s s p u s a a s u u s d s p u u p s 0 s d u $ .               ",
"              + u u O p s a u a s u s s u s s u u u u s u s u - .               ",
"            - q q + . u s u u u p s u d s a a u u u u u u s i - .               ",
"          . + - + . - u a u : : u s u a s p s a u u 0 u a s i $ .               ",
"          . . . . . i h p , 6 6 , u u u s u s a u u u p p s u - .               ",
"                  X h h p , K P 5 , u p s , u u u s u s u s u - .               ",
"                  X j d u P p.6.G X u d u + , > + s u d 0 p u - .               ",
"                  O j u a u.z.6.G o d h p @ , , - s u s X , u - . .             ",
"                  . d u t.c.c.3.. + j p o N 8 - p , X 0 . , u u - . . . .       ",
"                    + X u.c.b.r.q &.o o 4.N , u : + - u u $ O : u , : . .       ",
"                      . d.b.T.t.u O.I.r.4.6 ; , H e.: u p 0 + . - , + .         ",
"                      . h.R.!.g.p o.).c.H ; - H a.d.0 0 - 0 , - - + .           ",
"                      . h.!.^.Y.s.f._.!.e.+.Y Y r.Y : u - - - : + .             ",
"                      . d.!./.(.(.(.(.(.Q.b.l.R w 5 . , : X . . .               ",
"                      . 3.v.^./.(.(.(.^.R.l.3.K L F . . . . . . . .             ",
"                        . 3.x.W.~.~.~.T.l.3.N ; ; = = . . . .                   ",
"                          o o e 2.R U 7 , , z m A / /                           ",
"                              o N a.C.M._ B -.A ] V.N./                         ",
"                              J f.K.n.n.Z -.A ] D.F.n./ /                       ",
"                            . j H.Z.C V <.:.c Q M.A.%.s...                      ",
"                            . y ` Z ,.1.8.>.b = W @.c.!.2.8                     ",
"                            . = Z ,.8.8.5.M k 1 % T E.(.y.4                     ",
"                        6 % X 2 ,.7.9.*.3 6 = & * f E.!.k.w                     ",
"                      . 6.4.e z 7.1.=.. P p.$.M.N.[ v.k.U <                     ",
"                      . 6.4.9 W B.` ( . i.Q./.U.L.N.' U @                       ",
"                        4 % ~  .| B.v . j.E.E.P.M.m.& @ 3                       ",
"                          l #.G.w.J.*.x F J H g ~ ^ E E +                       ",
"                          n I q.1.0.-.n l l # O t ^ / / O                       ",
"                            S D X.{ } C C 9 < . * y y E O                       ",
"                            E Q ` [ S.) Q &       . . .                         ",
"                              r ! ;.S.) &                                       ",
"                                                                                "
};
