/* XPM */
static char *_0a6be9941364a049e6baf4763ee4e90AbtLUOUbpGzoMNKz[] = {
/* columns rows colors chars-per-pixel */
"40 40 189 2 ",
"   c #46250F",
".  c #49270F",
"X  c #492710",
"o  c #462F10",
"O  c #4C2A12",
"+  c #512E14",
"@  c #4A3012",
"#  c #553116",
"$  c #583417",
"%  c #523816",
"&  c #5B3618",
"*  c #5D391A",
"=  c #633D1C",
"-  c #325103",
";  c #365A05",
":  c #3F650E",
">  c #3E6B0E",
",  c #357504",
"<  c #387106",
"1  c #387C07",
"2  c #3D740C",
"3  c #3E7E0E",
"4  c #3F7B11",
"5  c #4F5E0F",
"6  c #525C0F",
"7  c #494E14",
"8  c #5A471B",
"9  c #4F5517",
"0  c #485A14",
"q  c #575D11",
"w  c #5D5F14",
"e  c #5A5719",
"r  c #525D1C",
"t  c #5C5F1C",
"y  c #66411E",
"u  c #6A421F",
"i  c #635A1E",
"p  c #40650D",
"a  c #4D6C0F",
"s  c #51650D",
"d  c #4C6414",
"f  c #416911",
"g  c #4C6C15",
"h  c #536415",
"j  c #586012",
"k  c #586D17",
"l  c #5C641C",
"z  c #536D1A",
"x  c #5C6C1B",
"c  c #437213",
"v  c #4D7216",
"b  c #457B14",
"n  c #4B7A15",
"m  c #47721B",
"M  c #4B731B",
"N  c #477A19",
"B  c #4B7B1A",
"V  c #54731A",
"C  c #5A721B",
"Z  c #537C1B",
"A  c #58791C",
"S  c #636117",
"D  c #63641C",
"F  c #6A641B",
"G  c #656B1D",
"H  c #6C681F",
"J  c #71661F",
"K  c #664321",
"L  c #6C4521",
"P  c #674821",
"I  c #6E4923",
"U  c #6E4D29",
"Y  c #714722",
"T  c #734B24",
"R  c #784E26",
"E  c #6D5424",
"W  c #655B23",
"Q  c #765026",
"!  c #7B5127",
"~  c #795A26",
"^  c #75512A",
"/  c #7D542A",
"(  c #745D28",
")  c #7C5A2D",
"_  c #795730",
"`  c #5D6D23",
"'  c #557524",
"]  c #5D7421",
"[  c #547C24",
"{  c #5B7C24",
"}  c #597F29",
"|  c #646525",
" . c #696224",
".. c #6B6921",
"X. c #6B662B",
"o. c #676F2B",
"O. c #6F6828",
"+. c #746A22",
"@. c #796B26",
"#. c #7E6D29",
"$. c #627B25",
"%. c #647F2A",
"&. c #727D2E",
"*. c #746D33",
"=. c #7D6A37",
"-. c #797033",
";. c #7B7932",
":. c #82562A",
">. c #855A2C",
",. c #8B5D2E",
"<. c #845E32",
"1. c #8A5F31",
"2. c #8D602F",
"3. c #90632F",
"4. c #85702E",
"5. c #856132",
"6. c #8D6332",
"7. c #8E6935",
"8. c #87653A",
"9. c #8C6739",
"0. c #836F3B",
"q. c #8D693B",
"w. c #916633",
"e. c #946B35",
"r. c #996D37",
"t. c #946C3A",
"y. c #996F39",
"u. c #8A7131",
"i. c #84713A",
"p. c #897539",
"a. c #9A7137",
"s. c #97703B",
"d. c #9C743B",
"f. c #9E783E",
"g. c #A0773D",
"h. c #A17A3E",
"j. c #947443",
"k. c #9C7541",
"l. c #937A47",
"z. c #9C7A44",
"x. c #9C7C4A",
"c. c #A27741",
"v. c #A37C42",
"b. c #A07B48",
"n. c #3E840E",
"m. c #3F880F",
"M. c #3E8510",
"N. c #428413",
"B. c #488017",
"V. c #458914",
"C. c #468419",
"Z. c #4B821B",
"A. c #4C8919",
"S. c #52821F",
"D. c #538A1E",
"F. c #4C8322",
"G. c #548422",
"H. c #5A8323",
"J. c #558B24",
"K. c #598B27",
"L. c #5B8328",
"P. c #5E8C29",
"I. c #638A2B",
"U. c #698B2E",
"Y. c #61942D",
"T. c #A68144",
"R. c #AA8444",
"E. c #AD8847",
"W. c #A5824B",
"Q. c #AC854A",
"!. c #AD884A",
"~. c #B0864D",
"^. c #B18B4D",
"/. c #A38553",
"(. c #A78853",
"). c #AD8B52",
"_. c #AA8A54",
"`. c #AE8D55",
"'. c #B28751",
"]. c #B48D52",
"[. c #B88E54",
"{. c #B59155",
"}. c #BB9255",
"|. c #B69258",
" X c #BB955A",
".X c #BF9659",
"XX c #BE965A",
"oX c #C1975B",
"OX c #C49A5D",
/* pixels */
"......C C A H.I.Y.K.Z.2 2 c N Z v h | ( <./ ) E i t ` ` x z d d 5 5 6 w F @.4.u.",
"D D x k V A D.H.{ ] O.l d 2 N B v ( x.q.Y / <.x._.l.0.i.X.` z z z z h j S J #.4.",
"q j h g v Z r P ! e.:.u Q ~ ` N W <.<.^ Q <.t.b.}.`././././.j.o.} { C h j F +.#.",
"j x V V Z Z % O $ u O O + Q k.( :.>.:.e.t.t.w.f.{.]./.(./././.l.} L.{ C k G H J ",
"x ] { [ G.Z.8 # = + X + O O & w./ z.Q.T.8.) v.XX X[././././.(./.*.J.G.{ $.G F S ",
"$.%.U.P.K.J.O.t.e._ / b.& O * ~.].Q.w.$     O K !.|._.XX_._._. XXX{ G.I.U.H.G j ",
"{ I.K.K.[ ) e.f.g.R.Q.k.O O / v.6.T * O O   . O 9.T.XXOXOXXX X|.^.$.A.D.Y.I.C s ",
"Z [ G.J.l Q :.6.9.d.k.d.y.^ 6.f.:.I # +   O X X * 9.'.Q. XOXOXOX}.] V.A.D.P.Z a ",
"n N B Z.9 $ T Q >.Q % + % L $ $ + . . . . O .   X + K c.y.s.^.oXOX;.V.V.A.D.S.v ",
"n N b N.0 O $ L & * * # # O O O . O O + + $ $ % $ * O O I 1.,.w.c.9.m.n.n.b n V ",
"b b b 4 f   $ 7.f.h.f.a.a.7.2.2.e.e.>.:.>.2.2.2.7.].w.+ O O $ T >.h M.1 , < n Z ",
"g V v v z 6.T.^.R.R.R.R.R.E y y a.h.R.h.R.R.a.h.v.XXOX).K O O y : n.M.M.3 2 S.I.",
"o o y I & o $ L u h.T.R.E.E.h.R.R.R.{.R.R.R.R.f.h.}.OXOX^.s.d.e m.n.M.M.N.N G.I.",
"7 X # * u * o y u 3.R.R.R.R.R.T.T.E.!.E.R.R.!.a.r.r.~.}.Q.~.E.!.&.B.M.M.C.Z.[ } ",
"g               O P r.h.R.^.{.E.E.!.E.R.!.!.^.f.}.[.^.}.E.~.v.{.OXW.p.d 4 Z.m > ",
" .T y K / 6.t.d.f.e.7.) f.f.v.h.R.^.^.R.e.5.t.2.>.g.g.g.T k.).].|.`.|./.*.N > ; ",
"v.h.v.E.R.E.Q.r.3.h.{.^.^.}.}.R.d.a.d.2.= O X X O O = u + + ^ x.k.s._./.` B m : ",
"I y L L T = :.w.d.d.h.R.E.R.d.].}.}.XX!./ O T t.k.k.j.6.w.& + L z.Q.!./.m F.M m ",
"                O ! 2.2.r.f.w.2.v.E.{.oX].:.[.OXXXQ.~.^.[.[.k.^ = I >.:.` F.[ [ ",
"            O O . y >.r.3.2.w.,.>.,.w.h.v.>.g.].W.c.v.c.g.y.Q.~.~.'._.'.*.N N m ",
"        . $ = = + $ ! ! w.a.w.R u * L 3.g.:.e.T.v.a.d.s.h.h.~.~.v.).].}.XX-.M M ",
"        $ >.w.:.:.>.,.e.d.h.h.w.u * = T r.3.w.R.h.g.{.'.c.d.v.v.k.Q.).XX X].' } ",
"8.<.L y = = R 3.:.:.,.3.a.d.h.,.R u = T y.t.W.R.g.w.d.b.w.k.W.Q.c.t.y.d.Q.].o.} ",
">.R L y R :.w.>.T Y & :.g.T.h.r.e.w.1.'.Q.!.d.d.d.3.f.v.Q 1.w.t.e.1.1.3.,.6. .' ",
"R T = u T >.>.:.y # # y T ,.d.e.w.e.f.y.!.].g.d.e.3.e.s.T I Q >.u ,.2.e.e.3. .p ",
"O R R :.$ O Y T $ O # O O O = :.e.e.6.y.!.Q.c.L d.r.a.d.e.= # u >.t.a.f.T./ P ; ",
". X & = Y ^ <.q.q.1.2.a.v.h.v.5.y & u >.s.6.T L O $ = L y K O # O # = R 7.# * - ",
"X X X + Y 1.1.1.d.t.:.w.h.R.^.h.g.T + / >./ :.+ .                   X       o ; ",
"r O X O X + Y :.R 2.e.a.a.h.h.g.g.a.Y :.u u u w.<._ ^ U K * y + $ = = = * * K d ",
"S.M % o X X O u L :.f.e.w.d.h.d.e.w.Y & $ L = $ = / R >.6.T = O     # = o   * & ",
"G.Z.Z.M O X X O + * = Y T :.6.1.,.,.= R Y $ = = & # # $ !   X   .       X X O I ",
") W | X.E & + y y T T Y ! :.y.>.I T T :.:.e.y.y.y./ / :.^ X               . % ` ",
"O K >.,.R O X + + = :.,.,.y.y.~.}.oXoXoX^.w.! * y L y O X X       X     X 8.=.j.",
"T * y L = X X = T :.6.y.c.w.1.w.e.r.R.h.h.w.! Y $             X         X + & = ",
"= y * # O X + >.,.,.,.2.w.>.= = u * $ # O   .                 . X X X   O + = = ",
"# * = * X X X + Y :.R = $ = $ = * P T I * .     = # X   X       O O + & ) k.j.9.",
"O O = >.+ X = >.,.3.,.:.,.3.3.y.R.T.d.e.I X X * / ,.R O # y * $ :.T ! t.q.<.>.t.",
"+ + + = + L <.e.,.>.>.,.3.,.1.w.h.d.e.6.:.>.y.g.d.7.6.:.:.,.:.T + * T = X + O + ",
"X X # O X X R ,.,.,.,.,.,.,.6.1.e.6.e.T.v.w.w.,.,.R =   X * = O X       X     X ",
"X X X X . + Y R R ! R ^ >.6.1.>./ R = = R / R R = $ +       .   X       X       "
};
