/* XPM */
static char *_4a5ff967e564fdbe5d7281ba4691b8fGq78Iz4hXZazxEjU[] = {
/* columns rows colors chars-per-pixel */
"40 40 227 2 ",
"   c #010101",
".  c #01040C",
"X  c #080B08",
"o  c #07170B",
"O  c #0B130A",
"+  c #14170A",
"@  c #010615",
"#  c #060A14",
"$  c #010B1D",
"%  c #08191D",
"&  c #1B1D16",
"*  c #251907",
"=  c #1A230F",
"-  c #082D1C",
";  c #17231B",
":  c #0D3919",
">  c #173C17",
",  c #262619",
"<  c #312D1B",
"1  c #273919",
"2  c #39371E",
"3  c #010D23",
"4  c #000F2C",
"5  c #051724",
"6  c #01112D",
"7  c #191D24",
"8  c #011435",
"9  c #011439",
"0  c #0B1D38",
"q  c #121A33",
"w  c #192722",
"e  c #0E263F",
"r  c #162637",
"t  c #173935",
"y  c #272C27",
"u  c #312D27",
"i  c #2C322F",
"p  c #3C3628",
"a  c #2D3932",
"s  c #523D18",
"d  c #453D28",
"f  c #2C4B17",
"g  c #3A4619",
"h  c #275E17",
"j  c #365715",
"k  c #28661C",
"l  c #376818",
"z  c #367012",
"x  c #32741E",
"c  c #1C4033",
"v  c #364123",
"b  c #2B542E",
"n  c #37582C",
"m  c #26443A",
"M  c #286922",
"N  c #376328",
"B  c #3E7925",
"V  c #494914",
"C  c #455B12",
"Z  c #6B4411",
"A  c #675C19",
"S  c #795217",
"D  c #47790E",
"F  c #566D17",
"G  c #467817",
"H  c #777C19",
"J  c #43463D",
"K  c #515738",
"L  c #6B5629",
"P  c #685530",
"I  c #4A6A29",
"U  c #4A7828",
"Y  c #587A2E",
"T  c #4C6D30",
"R  c #567631",
"E  c #677426",
"W  c #737329",
"Q  c #696437",
"!  c #786839",
"~  c #021A45",
"^  c #0E1F45",
"/  c #021F4E",
"(  c #011F52",
")  c #051F5E",
"_  c #0A2A4B",
"`  c #172748",
"'  c #163343",
"]  c #012156",
"[  c #0D2957",
"{  c #02215A",
"}  c #26364B",
"|  c #343C48",
" . c #263A55",
".. c #052164",
"X. c #33474A",
"o. c #304257",
"O. c #575943",
"+. c #455554",
"@. c #575C53",
"#. c #7A5147",
"$. c #567647",
"%. c #516653",
"&. c #7A6A45",
"*. c #6A6B59",
"=. c #6D7355",
"-. c #7A765A",
";. c #666763",
":. c #6F7160",
">. c #8A591B",
",. c #857A1B",
"<. c #835B23",
"1. c #855E30",
"2. c #8C6B2A",
"3. c #926D29",
"4. c #8D712D",
"5. c #99742D",
"6. c #8A7639",
"7. c #987637",
"8. c #A37E37",
"9. c #B53541",
"0. c #874D4E",
"q. c #897C49",
"w. c #917B4F",
"e. c #D7495A",
"r. c #3F801F",
"t. c #548A0A",
"y. c #4D831C",
"u. c #528C1D",
"i. c #5C9819",
"p. c #629818",
"a. c #5FA01C",
"s. c #68A41C",
"d. c #6DA81F",
"f. c #74A71B",
"g. c #74B31B",
"h. c #4B8422",
"j. c #578829",
"k. c #5C8D2A",
"l. c #5C9322",
"z. c #658825",
"x. c #679A27",
"c. c #779A26",
"v. c #728932",
"b. c #669535",
"n. c #7A9B37",
"m. c #6DA126",
"M. c #76A727",
"N. c #7BB328",
"B. c #73A233",
"V. c #7BA737",
"C. c #7FC114",
"Z. c #5A844B",
"A. c #778645",
"S. c #729052",
"D. c #798169",
"F. c #7A9066",
"G. c #83A01B",
"H. c #89892B",
"J. c #98892C",
"K. c #86952A",
"L. c #969229",
"P. c #89873A",
"I. c #9A8939",
"U. c #889737",
"Y. c #93963A",
"T. c #A0822D",
"R. c #A68637",
"E. c #B1803B",
"W. c #B28D3B",
"Q. c #AA943C",
"!. c #B5903D",
"~. c #BA933C",
"^. c #85AB2E",
"/. c #87A836",
"(. c #84B532",
"). c #89B83A",
"_. c #918C4B",
"`. c #849C45",
"'. c #98865B",
"]. c #969953",
"[. c #A68D4A",
"{. c #A8994A",
"}. c #BA9645",
"|. c #A39B58",
" X c #B89A54",
".X c #89A946",
"XX c #8BB541",
"oX c #94B94A",
"OX c #90AC58",
"+X c #99B855",
"@X c #A9A54E",
"#X c #A0AF54",
"$X c #B8A558",
"%X c #84846B",
"&X c #9B9268",
"*X c #878B7C",
"=X c #8C927C",
"-X c #979878",
";X c #AE9769",
":X c #9AA670",
">X c #BBA465",
",X c #BEB065",
"<X c #ACAC71",
"1X c #C19D47",
"2X c #C69B58",
"3X c #C3A44B",
"4X c #C8A759",
"5X c #D7B45C",
"6X c #C3A765",
"7X c #D3AD64",
"8X c #DAB868",
"9X c #CBB474",
"0X c #DABC71",
"qX c #D4B578",
"wX c #E3BE69",
"eX c #E1BA75",
"rX c #9CC44C",
"tX c #A1C552",
"yX c #B3C96E",
"uX c #E3C269",
"iX c #EACA78",
"pX c #F3D37C",
"aX c #8E9481",
"sX c #A7A987",
"dX c #B3B58E",
"fX c #EFCF81",
"gX c #F7D684",
/* pixels */
"................................................................................",
"................................................................................",
"................................................................................",
"................................................................................",
"................................................................................",
"................................................................................",
"................................................................................",
"................................................................................",
"................................................................................",
") ) ) ) ) ) ) ) ) ) ) ) ) ) ) ) ) ) ) { ) ) ) ) ) ) ..{ { ) ) ) ) ) ) ) ) ) ) ) ",
"                                +   X X   * X o : : : o                         ",
"                      X o o X O s , < u 2 g u.N.XXrXrX(.m.l O                   ",
"                    I OXyX.Xh.1 Z Z O.R <.L yXXXB.x.m.V.oXyX(.j                 ",
"      X           `.I. X[./.+Xr.L S A.N S F G A 3.5.5.3.S y.V.+XC + v f , X     ",
"  O = X + 1     A.4X Xd p 6.U.m.T H l.x.V C 7.q.-.Q p P W.R.3.E V.f X X   = +   ",
". # . . . # v O {.8X& w J =.P.x.j.).g.(.l E &X=X%X-.O.y , 5.I.R.E d.. .   . & . ",
"@ @ @ @ @ # , $.,XQ & a @.D._.l.u.H p.>.D C -XsX*X%X:.+.7 y I.R.R.M.= @ @ @ $ # ",
"$ $ $ $ 3 - > j.l.n.b.k.U N R l.l.g.f.f.z.j :XdX-X*X-.@.i 1 P W.W.,.k.; $ $ $ $ ",
"$ $ $ % k b.oX/.V.^.U./.).XXb.U W #X`.n.[.Y dXdXsX=X=.b.j.k.M.~.~.>.C.U $ w a w ",
"$ $ - U tX).L.@X8X XwX7XeX>XU.U.V.;X9.#._.v.OXF.$.Y l.k.B.t.n.iX}.>.D rX; I D j.",
"3 5 l rXN.}.8X7.I.6XQ &.{.{.uXqX|.&Xe.:.|.6X].B s.x.b.A.].Q. X}.!.Z E t.m.D z I ",
"$ : N.N.J.7Xp 3 E >X|.S.F.P.J.7XfXqX0.w.U.].j.x.m.c.{.[.7.;XeXwX~.V J.4.F 1 % y ",
"$ k +Xx.2Xu 3 3 5 ! qXeX9XY.y.6.}.iX9XpXqX>X$X@X@X{.>XqXgXiXpX}.S f 7.W.5.1 3 3 ",
"% x +Xc.R.3 6 3 3 5 v Q q.U.u.$.sX X1XwXpXgXpXgXgXiXgXfXgX8X~.5.2 3 p !.}.V 3 3 ",
"5 x +XG.6.4 4 4 4 4 0 | ;.I.B.N sXdX$.K.Q.3X7X6X8X4X5X1X}.5.s < 4 4 r E.~.g 4 4 ",
"6 h oXf.1.4 4 4 6 6 6 ' +.'.V.r.D.Z.h.d.d.H. Xw.R.Q P s < w 6 6 4 4 w.!.3.y 8 4 ",
"9 : x.oX,.0 9 9 9 9 9 e } *.I.b.M a.(.M.J.9XaX<X6.+.X.` 9 9 8 9 9 q 0X~.>.r 8 8 ",
"/ t M ).oX2.^ ~ ~ e e m ' X.R k N.).M.8.<X*X*X6Xn o._ ~ ~ ~ ~ ~ i 2X4XE.s ~ ~ ~ ",
"/ _ n x M.<XN.T m ).d.l.h.l y.).N.K.7XN %.+.<XF  ._ / / ] _ r R 4XwXW.3.^ ( / ( ",
"( ] _ h.k y.m..X.XS.M x l.).(.x.R.0XL.).XXb.N b c c t b k.M.{.gX3X!.4.^ { ( ( ] ",
"] ] ] [ y.i.l l y.s.V.(.g.f.T.6X .| 6XiX2XJ.K.K.c.K.I.2XiX0X5X8.8.d ] ] { { ] ] ",
"{ { { { { _ b I j.S.b.Y #.;.[ ] ) ]  .K } P '.&X'.;Xw.w.&.&.d ` { ) { { { { { { ",
"................................................................................",
"................................................................................",
"................................................................................",
"................................................................................",
"................................................................................",
"................................................................................",
"................................................................................",
"................................................................................"
};
