/* XPM */
static char *c78372520bd148ffe2da0ab7fcf60be0HVj1RwJtlEfodB0E[] = {
/* columns rows colors chars-per-pixel */
"40 40 242 2 ",
"   c #030302",
".  c #080807",
"X  c #0C0C0C",
"o  c #140906",
"O  c #100D0B",
"+  c #0C1606",
"@  c #16140B",
"#  c #050818",
"$  c #0F1A17",
"%  c #171816",
"&  c #1B1C1A",
"*  c #261D15",
"=  c #2C1B11",
"-  c #132905",
";  c #1B3807",
":  c #1A2815",
">  c #1E221D",
",  c #1A3219",
"<  c #263B0D",
"1  c #21251C",
"2  c #372618",
"3  c #2E3311",
"4  c #050A27",
"5  c #161823",
"6  c #0B1534",
"7  c #1D2224",
"8  c #163125",
"9  c #232522",
"0  c #252A25",
"q  c #262828",
"w  c #2A2D2B",
"e  c #352926",
"r  c #2A3424",
"t  c #2A3C21",
"y  c #2D312C",
"u  c #30332F",
"i  c #2E2E36",
"p  c #343533",
"a  c #363936",
"s  c #3B3C3B",
"d  c #432E1C",
"f  c #4B3428",
"g  c #473C35",
"h  c #643B2E",
"j  c #1D4406",
"k  c #25480B",
"l  c #27550C",
"z  c #345B05",
"x  c #254411",
"c  c #2B451C",
"v  c #374414",
"b  c #2B5812",
"n  c #345B19",
"m  c #2D630B",
"M  c #3A690C",
"N  c #3A760B",
"B  c #3C7C0D",
"V  c #386817",
"C  c #3B7417",
"Z  c #3D7C12",
"A  c #314B28",
"S  c #3C4337",
"D  c #3B6322",
"F  c #3F772A",
"G  c #49560B",
"H  c #4D580D",
"J  c #585E12",
"K  c #466F0F",
"L  c #4B6714",
"P  c #536414",
"I  c #566917",
"U  c #5C6C1B",
"Y  c #487314",
"T  c #447C14",
"R  c #4B7B15",
"E  c #41741D",
"W  c #4C751C",
"Q  c #437B1B",
"!  c #4B7D1A",
"~  c #57751B",
"^  c #537D1B",
"/  c #65661B",
"(  c #70661E",
")  c #454C32",
"_  c #664329",
"`  c #755233",
"'  c #406E20",
"]  c #5D6D21",
"[  c #4C7B26",
"{  c #597522",
"}  c #547D24",
"|  c #5B7B22",
" . c #776A24",
".. c #647923",
"X. c #77762D",
"o. c #06164A",
"O. c #081757",
"+. c #0A1657",
"@. c #102553",
"#. c #2A3251",
"$. c #373A57",
"%. c #0A296A",
"&. c #132E6B",
"*. c #162C78",
"=. c #183478",
"-. c #423F40",
";. c #34494D",
":. c #384768",
">. c #3B5079",
",. c #444342",
"<. c #494646",
"1. c #474A46",
"2. c #4E4B4B",
"3. c #5F4E43",
"4. c #514D4D",
"5. c #494E55",
"6. c #545454",
"7. c #56585C",
"8. c #5B5C5D",
"9. c #795342",
"0. c #5B6258",
"q. c #766553",
"w. c #4F586E",
"e. c #5E6263",
"r. c #656869",
"t. c #656969",
"y. c #6B7171",
"u. c #717071",
"i. c #777A7B",
"p. c #865937",
"a. c #97653C",
"s. c #867130",
"d. c #AA703F",
"f. c #805547",
"g. c #8D6E49",
"h. c #996943",
"j. c #AA7447",
"k. c #AD7950",
"l. c #36850C",
"z. c #3C830E",
"x. c #3A8A0F",
"c. c #3D8513",
"v. c #3C8B12",
"b. c #3D8917",
"n. c #3E9415",
"m. c #41870E",
"M. c #438513",
"N. c #4A8416",
"B. c #438B15",
"V. c #498A16",
"C. c #44851B",
"Z. c #4B831B",
"A. c #458B19",
"S. c #4A8B1B",
"D. c #52851D",
"F. c #53891E",
"G. c #459119",
"H. c #479418",
"J. c #4B931C",
"K. c #54971E",
"L. c #60811F",
"P. c #4E8322",
"I. c #4D8A22",
"U. c #468428",
"Y. c #548422",
"T. c #5B8424",
"R. c #548B23",
"E. c #5B8B25",
"W. c #5A8929",
"Q. c #4D9121",
"!. c #559323",
"~. c #668628",
"^. c #638D2A",
"/. c #77812B",
"(. c #A28D31",
"). c #C7AB30",
"_. c #B3835B",
"`. c #A48567",
"'. c #B88B66",
"]. c #BE926D",
"[. c #AD9477",
"{. c #C1804D",
"}. c #C18758",
"|. c #CE966C",
" X c #D79B6A",
".X c #E19F69",
"XX c #DBA578",
"oX c #E5A46F",
"OX c #E6A977",
"+X c #F1B17C",
"@X c #14378A",
"#X c #11328E",
"$X c #233D82",
"%X c #2C4E8F",
"&X c #1A49A1",
"*X c #2553A9",
"=X c #2D56AC",
"-X c #3366B9",
";X c #465584",
":X c #536593",
">X c #707A88",
",X c #4369A7",
"<X c #3669C2",
"1X c #4B7BCB",
"2X c #77828A",
"3X c #5083D5",
"4X c #858A8A",
"5X c #8A8E92",
"6X c #8C9293",
"7X c #969B9A",
"8X c #B49D88",
"9X c #9DA09F",
"0X c #8795AE",
"qX c #9DA5A8",
"wX c #9EAAB3",
"eX c #A5A8A6",
"rX c #A5AEB1",
"tX c #A9B2B5",
"yX c #ABB5B7",
"uX c #B4BBBE",
"iX c #C8AC91",
"pX c #EAB385",
"aX c #EFBC8E",
"sX c #DBBCA1",
"dX c #FAC694",
"fX c #F9CB9D",
"gX c #D1C6B8",
"hX c #E4C5AA",
"jX c #FACFA2",
"kX c #FED2A5",
"lX c #FFD6A9",
"zX c #FED9AD",
"xX c #FFDCB1",
"cX c #B5BEC2",
"vX c #BCC3C7",
"bX c #BDC6CA",
"nX c #C2C9CB",
"mX c #C4CED2",
"MX c #CBD6DA",
"NX c #D0DADE",
"BX c #D2DDE3",
"VX c #E2EEF3",
/* pixels */
"/ / / U ~ ~ F.^.W.!.Z.N N K Y W Y L I I P G G G H I ] ] ] I L P P H H J (  .s.s.",
"/ / I I ~ ^ F.E.!.I.C.N N Z R ! W W ~ ~ L v 3 G J I ] { { { W I W I I P / (  .s.",
"J J I I R ^ F.R.Q.Q.b.l.N Z c.! ! [ Y.{ ) t r 3 < L { } } } T.} { { ~ P J / (  .",
"P I U W ^ Z.F.S.A.n.b.b.x.b.b.U.Z.} ' D S p w 7 @ < W P.Y.U.W.W.W.T.{ I I / ( ( ",
"] { | | D.I.S.A.v.b.n.n.l.x.c.M.C.V A a 4.4.S y 9 O x E ' ' I.W.E.Y.Y.| ^ / / / ",
"..| ~.W.Y.R.J.A.l.v.b.x.l.Z b V n A a 4.e.y.6.p p 1 . l D t F U.R.F.Y.^.~.~.U J ",
"| | E.R.R.I.A.b.z.x.n.b.Z c 1 r r s 2.r.y.e.2.,.y 7 X l D 0 c C.J.S.N.F.E.~.~ J ",
"} Y.Y.R.I.S.A.M.c.v.B.C c y 0 0 p 4.r.y.y.0.2.1.p y 1 % : w r U.V.m.V.N.K.E.^ P ",
"W R ! C.N.N.b.M.m.m.Q A ) 6.p 1 ,.r.y.y.r.4.4.2.) i q X & s y c Q G.B.M.N.F.R Y ",
"R T T T M.M.M.c.M.H.V w 7.e.#.p 1.r.r.y.r.6.2.4.2.p y O q 6.w > C G.z.z.T T R R ",
"T T T Z B z.M.B.A.Q v a r.4.S 1.4.4.e.u.r.6.2.2.2.s a X y r.p > C Q.v.B N N R ^ ",
"R T T B z.z.B.C S.D w 1.e.6.2.1.<.<.2.e.6.<.2.2.2.,.a & s r.1.> Q Q N z.N N N.~.",
"N.T T z.z.m.C.t D n s e.4.2.p 0 0 p <.2.4.2.2.,.w w 0 a 6.e.g 1 V , x S.T T } T.",
"Z.N.M.B z.M.C.t 9 y s 4.2.p % X X @ p <.4.2.g w o O O 1 ;.<.p & +   x B.M.N.} [ ",
"N.V.c.z.z.x.C.t 0 s s y u O 9.'.k.` % p 1.1.> * a._.'.g 9 ,.0 w 0 X x A.Z Q E K ",
"V.M.M.z.l.c.C.t p ,.p > % ` pXkXfXXXp.% w 9 2 j.aXkXlX}.f & 9 y y X x A.N R L z ",
"M.m.B.z.x.l.C.V S q & & % k.aXzXlXdX X` 1 2 j.+XfXlXjXpXp.  7 $ & . x A.Z Z.Y M ",
"M.M.B.v.v.v.v.J.c * 2 X O ].|.`.[.'.oX X9.h.OX X`.[.`.XXg.  % d * : n V.C.P.W Y ",
"M.B.B.B.b.x.v.H.- _ h.  2 |.q.5 $ e j..XpXpX Xp.: % q `.k.o = k.2 l Q.Q.U.P.[ [ ",
"M.M.B.G.v.x.x.G.; ` 9.= k.OX8X6.O X _ _.OXOXh.2 . > u.iXXX` 2 k.r b G.C.N.Q W W ",
"m.M.B.A.v.x.l.l.c.n X * {.pXgXvXr.= k.XXpX+X.Xp.* 5XnXsXoXp.o * V N.A.C.C.Q [ [ ",
"V.V.B.G.v.x.l.l.l.Z ; o p. XhXqX6.3.XXfXjXjXdX'.g u.uXhX|.h + l c.B.B.C.C.[ } } ",
"V.B.A.B.B.v.v.z.z.J.V . 2 }.aXiX[.iXfXlXzXzXkXsX8X8XiXpXh.o + S.K.B.B.M.N.P.T.} ",
"S.S.A.A.G.v.B.G.M k , 6 9 h }.aXlXzXzXzXzXzXxXxXzXkX+Xj.f 5 4 k k C G.C.V.P.! W ",
"F.S.S.A.A.H.S.C > 4 o.=.7.0 h k.oXdXaXjXkXjXfXdXaX_.a.d i w.*.@.6 A U.G.G.U.Y K ",
"R.F.S.S.A.A.V $ +.@X*X*Xe.2.5 e 9.j.k.|. XXX}.d.a.9 # i 8.w.&X1X-X#X&.J.Q.Z.M z ",
"R.!.R.S.J.C $ O.@X-X3X,X5 ,.#.#X&.o 5 h 9.9.f o 5 =.&.$.p 4 *.1X3X*X#X;.!.P.M z ",
"E.R.!.I.J.[ @.@X,X=X=X-X$ 8.w.5.$.+.+.$X%X$X=.+.O.:.5.e.<.# *.1X-X&X#X;.!.!.Y M ",
"R.R.R.!.C 8 $X:X2X%X@X&X5 >XcXwXy.$.$.:.:.:.:.$.5.>Xi.1.a 7.:X0X>X=.O.c K.D.R K ",
"D.R.Y.Q.V # ;XwXuX0Xw.6 # 2XMXBXcXeX9X>Xr.u.5X9XeXvXe.p u.uXtX7X6X>X6 ; H.D.D.^ ",
"D.^ Z.N.V S 7XbXvXrX0.. t 0.cXBXmXmXbXeXtXeXyXbXmXcX0 ,.yXVXNX6XtXtX8.k M.D.F.~.",
"Y.Z.C.B.C y.bXyX5X6Xr.: n + 2XmXcXcXcXg.eX6X2XcXcXyX5.,.6XNXbX4XvXuXu.) m.N.F.^.",
"! ! N.M.Q 0.6Xi.5XvXeX-..   r.rXbXNXgX(.s.` i.nXMXcX7X$.i 2X2X7.2X5X) x m.D.F.^.",
"D.! T T M.[ 6.: r.tX4Xs .   y w 6.7XX.(.).).X.0.6Xs u #.6 @ 1 ,.1 V I.T R D.F.~.",
"R.D.M.T z.M.E + s r.1.: l + @.=X>.1 @ = 3 3 @ O 7 %.@.6 , C C U.C b.A.A.R R D.~.",
"E.F.R T B B.B.M < & : m z.- O.*X%X&.%X%X%.%.O.o.%.*.o.# ; K.J.H.J.Q.A.N.^ ~ ~ ~ ",
"^.E.F.N.N.M.V.H.m j m v.z.l 5 o.*.#X=X<X@X#X%.o.O.6 . - m v.H.G.Q.J.S.F.^ ~ ~ ..",
"T.E.E.E.F.V.V.M.B.B.x.z.l.z.l + 6 ;X:X,X:X;X@.+ - - ; M x.B.H.H.Q.G.V.F...D.....",
"~ ~.^.^.E.D.N.M.B.M.A.M.z.l.c.k r i.vXcXmX7X) l b.B.c.z.m.G.n.H.G.G.B.F.~././...",
"~ ~ ^.^.^.F.N.M.M.M.V.M.M.Z B b.l 7 4XMXwX,.x C.U.v.B.B.H.H.n.n.n.v.S.E./././.(."
};
