/* XPM */
static char *_012df22adac4113aea4f3b8ae44b6a40wS14rYBbSbT8iaE[] = {
/* columns rows colors chars-per-pixel */
"40 40 236 2 ",
"   c #030202",
".  c #060906",
"X  c #0C0B09",
"o  c #100B07",
"O  c #0B1805",
"+  c #16160C",
"@  c #040818",
"#  c #0F1417",
"$  c #151817",
"%  c #1A1A15",
"&  c #1B1D1C",
"*  c #2A1C15",
"=  c #172909",
"-  c #172F0A",
";  c #183406",
":  c #1E221D",
">  c #1A2A18",
",  c #32290B",
"<  c #273805",
"1  c #24271A",
"2  c #382719",
"3  c #22311A",
"4  c #040A27",
"5  c #0B162C",
"6  c #161727",
"7  c #1A2726",
"8  c #262A25",
"9  c #262826",
"0  c #2A2C2A",
"q  c #352D2B",
"w  c #293524",
"e  c #2D322C",
"r  c #31332F",
"t  c #333533",
"y  c #393A36",
"u  c #373838",
"i  c #3C3C3A",
"p  c #492E1C",
"a  c #48301D",
"s  c #473A2F",
"d  c #24460A",
"f  c #28550B",
"g  c #345B05",
"h  c #2A4A17",
"j  c #33421A",
"k  c #2C5814",
"l  c #33571D",
"z  c #396A0D",
"x  c #38770B",
"c  c #3C7D0D",
"v  c #2F6810",
"b  c #316411",
"n  c #376A17",
"m  c #3C7C12",
"M  c #3C7619",
"N  c #374A29",
"B  c #2D542D",
"V  c #3D4438",
"C  c #386B2C",
"Z  c #4B570D",
"A  c #4D5A0D",
"S  c #585E12",
"D  c #486C0F",
"F  c #4B6614",
"G  c #566616",
"H  c #546E1A",
"J  c #5C6C1B",
"K  c #477516",
"L  c #447C14",
"P  c #4B7B15",
"I  c #4B751B",
"U  c #4B7D1B",
"Y  c #57751B",
"T  c #537D1B",
"R  c #65661B",
"E  c #70661E",
"W  c #41413E",
"Q  c #584D31",
"!  c #664427",
"~  c #6C4C37",
"^  c #755137",
"/  c #446724",
"(  c #4B7B21",
")  c #5A7322",
"_  c #597326",
"`  c #557D24",
"'  c #5B7B22",
"]  c #776A24",
"[  c #647923",
"{  c #09184E",
"}  c #091653",
"|  c #142A4D",
" . c #18265D",
".. c #34384E",
"X. c #24365B",
"o. c #081F68",
"O. c #0D2E6F",
"+. c #142668",
"@. c #0E2674",
"#. c #142A74",
"$. c #263662",
"%. c #4D3E40",
"&. c #3D4241",
"*. c #384768",
"=. c #2B4379",
"-. c #444444",
";. c #494746",
":. c #48484A",
">. c #4D4B4B",
",. c #514D4D",
"<. c #4D514A",
"1. c #46495B",
"2. c #535353",
"3. c #545B59",
"4. c #5B5C5B",
"5. c #636153",
"6. c #4D536B",
"7. c #5E6161",
"8. c #636666",
"9. c #666C6C",
"0. c #696D6D",
"q. c #68716F",
"w. c #6C7273",
"e. c #777A78",
"r. c #895C38",
"t. c #8A6D30",
"y. c #825F43",
"u. c #94694A",
"i. c #A87449",
"p. c #B07B52",
"a. c #36860D",
"s. c #3C840E",
"d. c #3C8A0E",
"f. c #3D8512",
"g. c #3C8517",
"h. c #3C8B12",
"j. c #3F9516",
"k. c #42840E",
"l. c #438413",
"z. c #4A8317",
"x. c #438A15",
"c. c #4A8A17",
"v. c #44851B",
"b. c #4C831B",
"n. c #468C1A",
"m. c #4B8B1B",
"M. c #52851D",
"N. c #53891F",
"B. c #419315",
"V. c #46901C",
"C. c #4A921B",
"Z. c #449A19",
"A. c #52931E",
"S. c #60811F",
"D. c #4B8422",
"F. c #4E8B22",
"G. c #548323",
"H. c #5B8424",
"J. c #548B23",
"K. c #5B8B25",
"L. c #5A8929",
"P. c #4D9620",
"I. c #539322",
"U. c #5B9229",
"Y. c #668628",
"T. c #638D2A",
"R. c #77812B",
"E. c #828032",
"W. c #AF9332",
"Q. c #C9AE30",
"!. c #A9805F",
"~. c #BA8355",
"^. c #8B8676",
"/. c #B58A65",
"(. c #AC8E70",
"). c #A9A27F",
"_. c #C98C5A",
"`. c #D38F58",
"'. c #CD986F",
"]. c #D49867",
"[. c #E39D66",
"{. c #D4A47A",
"}. c #E7AA78",
"|. c #F0B07B",
" X c #0D3089",
".X c #173887",
"XX c #194595",
"oX c #294688",
"OX c #264798",
"+X c #385C94",
"@X c #1E4AA4",
"#X c #2254AC",
"$X c #2D58AF",
"%X c #3564BA",
"&X c #495C8A",
"*X c #52649B",
"=X c #7A7F82",
"-X c #627493",
";X c #4A67A1",
":X c #4474C5",
">X c #788493",
",X c #788EA8",
"<X c #5488D8",
"1X c #868B8A",
"2X c #848B91",
"3X c #899192",
"4X c #949999",
"5X c #AD9A86",
"6X c #BDA48C",
"7X c #9697A1",
"8X c #9BA3A6",
"9X c #A4A9AA",
"0X c #A6AFB3",
"qX c #ADB6B9",
"wX c #B3BCBD",
"eX c #B8B9BA",
"rX c #D5B292",
"tX c #E3AD82",
"yX c #EAB587",
"uX c #F2B886",
"iX c #E3BB9A",
"pX c #F7C18F",
"aX c #FBC998",
"sX c #CFC4BB",
"dX c #F8CDA1",
"fX c #FDD1A4",
"gX c #FFD6AA",
"hX c #FED9AD",
"jX c #FFDDB1",
"kX c #B3BCC2",
"lX c #B9C3C6",
"zX c #C2C8CA",
"xX c #C3CDD2",
"cX c #CCD6DA",
"vX c #D3D3D1",
"bX c #DAE5EA",
/* pixels */
"R R R J Y Y M.T.U.J.v.x z K U I D H F G S Z Z Z A S J _ J H G F F A A S E ] t.t.",
"R R G H Y T N.K.I.F.v.x x c K U I I Y F j = < Z S G ) _ _ ) H H H G G G R E ] t.",
"S S G H P T M.K.P.F.g.a.x f.v.b.b.T / N w 6 + < F H _ _ ` ` H.` ` _ J G S R ] ] ",
"G G H Y T b.N.C.n.n.j.h.a.g.g.v.v./ N i t e : X < ( ( ( G.D.L.L.L.H.' Y G R R E ",
") ) ' ` T F.F.n.h.h.j.h.a.a.g.m l N y 2.:.u e 7 X k M / / D.F.F.K.G.G.' S.R R R ",
"[ ' Y.L.J.F.F.h.a.h.j.g.x k n l w i 2.9.9.<.t e : X b n l M F.F.J.N.G.K.Y.' J G ",
"' ' H.K.J.F.n.x.f.a.h.M l 3 3 e i 2.0.w.3.>.-.e : X b l B l F.P.c.m.M.N.T.S.Y A ",
"` ` G.J.m.m.n.x.s.x.g.n r 7 8 ..2.9.w.w.2.>.s t w : O 7 0 h F.g.c.k.c.c.A.K.T G ",
"P P b.b.l.n.l.f.k.L n <.3.e 0 <.9.w.9.7.,.>.;.s t 8 . 9 i w h l.k.B.k.x.c.M.P P ",
"K L L L L l.l.l.x.n W 7.3.u t ,.8.w.9.7.2.,.,.;.e 9 . u ,.9 > M d.k.k.s.k.L P P ",
"L L L c s.s.l.x.M h V 9.,.s ;.,.2.8.w.8.2.>.,.>.i t . &.7.0 3 m d.d.d.x x x D T ",
"L L L m c f.M n.l r <.7.,.:.;.;.:.,.5.,.>.,.>.;.-.t $ :.8.i 3 m v x s.c x L z.Y.",
"z.P L c s.m h M N &.7.>.;.e 0 8 u >.,.,.>.>...8 0 8 i 4.7.i > b O f s.l.L L ` L.",
"z.z.l.s.f.M w 8 e V 2.-.t + o X % u :.>.,.&.1 o o # 8 -.-.0 % O   f k.f.v.b.( ` ",
"m.l.l.s.d.M w 0 V y t 0 % u.(.p.! # y :.s $ a i./.p.1 t s 8 0 9 . f a.c m U K F ",
"l.l.l.s.h.L w i -.t $ * r.yXgXaX'.! * t $ s p.aXfXdXp.p 6 8 r 8 . f h.x m L K g ",
"l.k.l.s.d.g.l y 8 & # , '.aXhXgXpX`.! % a p.uXdXjXaX}.s o 8 % & . f g.m m U K g ",
"l.x.x.h.h.h.x.> * 2   * './.(.(./.}.`.~ p.|.'.p.5X!.}.^   1 p % - v l.l.v.D.( F ",
"l.x.x.x.h.h.g.O u.r.  s '.,.6 $ s ~.}.yX}._.~ $ # &.5X5.  a i.+ v C.x.D.F.D.( ( ",
"l.x.n.B.h.h.g.= y.~ , _.}.4Xs X + ~ _.}.[.y.1 . 0 u.rX'.! q p., b V.x.n.D.L I ( ",
"k.l.n.x.h.d.a.m j . p `.tXsXeX,.2 _.{.yXtX].! 7 9XsXiX[.^   , n g.x.n.n.v.U ( ( ",
"c.c.n.B.h.h.a.a.x - * u.}.vX4X>.^ uXdXdXdXpXp.W u.zXiXp.p O v g.h.x.l.v.v.( ` ` ",
"c.c.c.n.B.h.h.h.C.f o p ].iX6X5XrXdXhXhXhXfXrX5X6XsX}.^ o ; C.C.x.g.x.v.v.G.` ` ",
"c.c.n.n.x.x.x.f d : 5 * ! ].pXgXjXjXhXhXhXhXjXhXaX[.r.2 6 5 d f v.V.x.x.v.G.T I ",
"b.m.m.n.n.F.C 5 5 +.oX2.1 r.u.{.uXaXdXdXdXaXaXuX_.u.2 %.6.o.4 4 h g.P.n.F.v.K D ",
"J.N.m.m.c.C O.@X:X%XoX8.;.# @ ~ p.p.'.'.].~.i.u.s 6 u 4.+X@X@X@.4 h g.F.I.b.z g ",
"K.K.F.C.C @.@X:X<X%X{ & ;. ..X| o * ~ ~ ^ p o 6 .X+.;.9 $.:X:X@X@.4 h P.I.b.z g ",
"K.I.I.I.C @.XX#X:X$X4 $ 8.1.1.$.} +.oXoXOX#.} +.1.1.-Xq X.:XOX:X@X@.B V.U.F.K z ",
"G.J.K.I.M 5 #.&X,X,X6.>.t 8.=X8.$.%.$.6.*.....1.1X0X8XV | @X#.-X-XOX| g A.N.P D ",
"G.N.F.F.v @ 6.>X4X8XwX8X%.%.8XkX7X7X=X0.e.3X9X9XxXbXlX;.@ $.-X0XkX,X| ; A.M.N.T ",
"N.M.b.m.M u 3XlX7X0XbXcX>X# =XcXxXkX8X0X8XwXxXxXxXcX>XN O 9 4XkXxXkX8.j k.M.N.Y.",
"M.U U l.M :.7XcX7X8XbXwX8.u 3XkXkX9Xe.qX1X4XkXwXlXxXu ; d u 3X2X4XzX7XF k.z.N.T.",
"U U L l.z 3 w.3X8.9.2X3.7 e.0XxXcX9XQ t.t.).vXcXwX4X7 . & e.lX0Xe.>Xe./ k.S.N.Y.",
"M.b.L l.m v.D.3 y u + 5 } ..8 0.1XQ W.Q.Q.] ^.>Xe V +   * 9.9X8Xt N D.k.k.T S.N.",
"K.M.z.L f.V.x.M M M n k # } O.| + O , , , % + ..+XoX4 ; b N 5.7.> f x.L P z.M.M.",
"K.N.L L f.n.V.P.C.C.P.m . 4 O.#.o.{ +.@.=.+X$.O.$X.Xw x s.b 3 - k a.f.l.P Y Y Y.",
"T.K.N.z.z.c.V.n.n.V.V.g.d . 4 { { { .X X#X%X@XO.O.7 n c s.c f f h.B.k.c.T Y Y [ ",
"Y.K.U.K.N.V.V.m.V.n.n.x.g.d = ; O @ *.*X;X;X&X*.7 v l.l.a.d.j.Z.Z.B.x.M.Y.[ [ [ ",
"Y H.T.T.J.c.V.V.P.x.x.f.f.n.x.V.v > 9.lXlXlX9X3.v g.g.g.k.j.j.Z.Z.B.c.N.Y.R.R.R.",
"H T Y.T.U.N.V.V.n.n.c.c.l.c f.s.l.b > >XlXwX3.3 h.g.g.h.B.Z.j.j.j.d.c.Y.[ R.E.E."
};
