/* XPM */
static char *_75304930b6c441680006356e1322e61DeASOhDNwIO15d4Z[] = {
/* columns rows colors chars-per-pixel */
"40 40 234 2 ",
"   c #070908",
".  c #0B1704",
"X  c #18150D",
"o  c #040716",
"O  c #0C1418",
"+  c #131413",
"@  c #171916",
"#  c #1A1C1A",
"$  c #231C0F",
"%  c #271D15",
"&  c #0F2103",
"*  c #172C08",
"=  c #193706",
"-  c #142910",
";  c #1D221E",
":  c #1C3E14",
">  c #29360D",
",  c #25261A",
"<  c #37291A",
"1  c #263316",
"2  c #030928",
"3  c #09132F",
"4  c #151926",
"5  c #0A1335",
"6  c #182424",
"7  c #182234",
"8  c #242623",
"9  c #272925",
"0  c #2A2D2A",
"q  c #342B25",
"w  c #2B3625",
"e  c #2E312D",
"r  c #333A2C",
"t  c #2E2D34",
"y  c #353835",
"u  c #3B3C3B",
"i  c #442B1C",
"p  c #4B321D",
"a  c #573B24",
"s  c #433833",
"d  c #1C4407",
"f  c #234807",
"g  c #2A580B",
"h  c #375607",
"j  c #294619",
"k  c #2C5212",
"l  c #365718",
"z  c #2E660E",
"x  c #3A6A0D",
"c  c #38760C",
"v  c #3B7C0D",
"b  c #376818",
"n  c #387414",
"m  c #3D7C12",
"M  c #2F4E29",
"N  c #344A26",
"B  c #3E423B",
"V  c #3A6924",
"C  c #4B570E",
"Z  c #4B5713",
"A  c #585D12",
"S  c #466F0F",
"D  c #4B6712",
"F  c #566817",
"G  c #5C6C1B",
"H  c #447C13",
"J  c #4B7B15",
"K  c #4C751C",
"L  c #477818",
"P  c #56751B",
"I  c #537D1B",
"U  c #65661B",
"Y  c #70661E",
"T  c #4A4E2D",
"R  c #6F4B2F",
"E  c #785634",
"W  c #496F2E",
"Q  c #5D6D21",
"!  c #4A7826",
"~  c #5B7422",
"^  c #557D24",
"/  c #5B7B22",
"(  c #776A24",
")  c #647923",
"_  c #737430",
"`  c #060E49",
"'  c #091948",
"]  c #0A1759",
"[  c #0F2752",
"{  c #283354",
"}  c #0B1C65",
"|  c #172867",
" . c #0E287A",
".. c #152F74",
"X. c #0C347C",
"o. c #273662",
"O. c #533B45",
"+. c #374D73",
"@. c #444443",
"#. c #494645",
"$. c #484948",
"%. c #4D4B4A",
"&. c #514D4D",
"*. c #4C5348",
"=. c #464958",
"-. c #4E5352",
";. c #545454",
":. c #565858",
">. c #5B5B5B",
",. c #684946",
"<. c #59694F",
"1. c #6F6C58",
"2. c #444D60",
"3. c #5B5C62",
"4. c #5E6161",
"5. c #616564",
"6. c #666B6A",
"7. c #676A6C",
"8. c #6B716B",
"9. c #6B7272",
"0. c #6F727A",
"q. c #747778",
"w. c #865937",
"e. c #945F31",
"r. c #816C29",
"t. c #906F2E",
"y. c #936C4A",
"u. c #8C745A",
"i. c #AD7953",
"p. c #917B62",
"a. c #36850B",
"s. c #3C830E",
"d. c #3C8A0E",
"f. c #3D8413",
"g. c #3D8B12",
"h. c #398814",
"j. c #3F9413",
"k. c #3E9518",
"l. c #40880F",
"z. c #42900F",
"x. c #438413",
"c. c #4A8417",
"v. c #438B15",
"b. c #498A16",
"n. c #45851B",
"m. c #4C831B",
"M. c #458B19",
"N. c #4B8B1C",
"B. c #52851D",
"V. c #538A1E",
"C. c #419314",
"Z. c #439618",
"A. c #60811F",
"S. c #4D8422",
"D. c #4D8B21",
"F. c #548322",
"G. c #5B8424",
"H. c #548B23",
"J. c #5B8B25",
"K. c #5A8929",
"L. c #559324",
"P. c #668628",
"I. c #638D2A",
"U. c #77812B",
"Y. c #778478",
"T. c #A3912E",
"R. c #AE835D",
"E. c #BB8456",
"W. c #B2906B",
"Q. c #C2814F",
"!. c #C68A59",
"~. c #C88F65",
"^. c #CA9264",
"/. c #DC9D6A",
"(. c #CB9B73",
"). c #D5A279",
"_. c #E5A46D",
"`. c #E7AC7A",
"'. c #0E2A81",
"]. c #153888",
"[. c #133792",
"{. c #1E428C",
"}. c #19439B",
"|. c #264889",
" X c #224692",
".X c #345897",
"XX c #1D4AA2",
"oX c #1C50AD",
"OX c #2655AA",
"+X c #2958AF",
"@X c #3364B5",
"#X c #576B89",
"$X c #697888",
"%X c #797E82",
"&X c #3A6EC5",
"*X c #4C7DCB",
"=X c #7D8383",
"-X c #778796",
";X c #5E84B6",
":X c #4D83D5",
">X c #5991DD",
",X c #868C8D",
"<X c #91938D",
"1X c #8D9498",
"2X c #94999A",
"3X c #A7A49E",
"4X c #9DA5A7",
"5X c #A6ABAA",
"6X c #A6AFB2",
"7X c #ABB3B6",
"8X c #B2B9BA",
"9X c #CEB190",
"0X c #D8B594",
"qX c #EBB587",
"wX c #F4BA87",
"eX c #E4B792",
"rX c #EBC59D",
"tX c #F9C899",
"yX c #D2C7BD",
"uX c #FDD2A5",
"iX c #FED5A8",
"pX c #FCD6A9",
"aX c #FED9AD",
"sX c #85B0DB",
"dX c #B5BEC2",
"fX c #BAC2C5",
"gX c #BCC5CA",
"hX c #BFC8CE",
"jX c #9AC6ED",
"kX c #C6CACC",
"lX c #C3CDD2",
"zX c #CBD5D8",
"xX c #D3DEE2",
"cX c #D8E3E9",
/* pixels */
"U U U P P P B.I.K.H.m.c x H L I K D F F C , C C A F Q Q Q D F D D Z D A U ( r.t.",
"U U G F P P V.J.L.D.x.v c c L J L K ! Z r w , > C G Q ~ ~ ~ G K F F F A U Y r.r.",
"A A F F K I B.V.D.D.h.a.v m n.L m.^ T M { r 0 8 1 Z ^ ^ ^ ^ ^ ^ ^ ~ G F A U ( ( ",
"F F G K I N.V.N.k.D.k.h.h.f.x.n.L l B $.>.$.y 0 % - l K ! S.K.K.K.G./ P F U Y Y ",
"Q ~ / I B.D.N.M.g.g.k.h.h.n l b M r $.4.9.4.T t 0 + * L V V S.H.K.F.F./ ) ) U U ",
") ) P.K.H.H.D.g.a.d.k.h.z j 6 9 r #.4.9.5.;.%.y 0 @ * b N N V D.H.V.F.K.A.A.G A ",
"/ G.G.K.H.L.M.v.s.h.v.b M e 8 e #.4.9.9.5.&.&.u e 0 # . e w V M.V.m.V.V.I.A.P A ",
"^ ^ F.D.D.N.M.f.f.v.b M :.-.9 y >.9.9.5.;.%.%.%.B e @   u y N n z.l.b.b.V.J.P D ",
"L L m.m.n.v.x.l.l.l.j *.5.$.e s ;.6.9.7.3.&.%.&.u e # + ;.B 8 z z.l.l.x.c.B.c.J ",
"L H H H x.x.x.v.x.b w ;.5.#.@.&.&.;.6.7.>.&.%.&.@.u 6 + 4.%.9 k l.l.l.x.s.H J P ",
"S H m v v s.H n n.l T 3.>.%.@.@.s &.:.>.%.&.%.#.@.B 0 e 5.:.0 k v g v v c c H I ",
"H x.H H f.x.b l n M :.:.#.u ; ; 4 u %.%.&.%.%.0 ; ; 9 $.4.%.8 j d & c s.c S c.A.",
"c.c.x.H s.s.b j M u @.$.u 8 % % $ , u &.&.@.0 % % % , e $.y 6 @ . & m f.H H F.G.",
"c.c.x.f.s.s.b w r @.e e 4 p (.(.Q.p # s $.0 + w.^.).u.% s y 9 e # . c f.x.m.^ ! ",
"c.x.x.s.s.d.z e @.u 9 + p !.uXuXtX!.p # 0 % w.qXuXpXqXe.# ; e e @ . c s.m L L D ",
"x.x.x.s.s.a.f.b r + ;   R qXtXpXuXqXE.a X w./.wXiXiXtX~.X @ @ @ - * v v m L S h ",
"x.x.x.d.h.a.j.c % p %   R ).u.p.u.E.`.E.w./._.i.p.p.i.(.+   i i - z v m m J S x ",
"x.x.g.g.g.a.j.z $ i.i X u.W.O.+ O R E.`.qX(.y.q   6 1.(.a   y.w.= f.h.x.S.S.L K ",
"v.v.v.v.g.g.j.z > i.< R _.0X<Xt   % y./.`.!.R   + >.3X`.!.$ ,._ d n.v.D.D.S.! ! ",
"x.x.v.v.v.h.d.a.c =   R /.eXkX3X8 E /.qXqX`.!.< 3.kXyX`.Q.<   k f.g.n.M.n.L L ! ",
"x.l.b.v.g.d.a.a.a.c . i i.eXyXq.#.W.tXuXuXuXeX1.;.2XyX).w.X = l.d.x.v.n.n.L K ! ",
"b.b.M.C.g.d.a.a.d.h.c * R _.0X9X0XeXpXaXaXpXuXrX9X0XwXE.< f x.b.v.s.v.n.m.S.^ ^ ",
"b.b.M.b.M.h.g.v d = = 1 q w.`.wXaXaXaXaXaXaXaXaXiXwXQ.a 0 * = = g x.v.n.n.S.F.^ ",
"N.M.M.b.v.Z.c = [ o.[ 2.%.q R i.`.wXtXtXtXtXwXqXR.E a e 3.{ ' 5 3 g v.n.n.H.I K ",
"N.N.N.v.M.n j [ @X&XoX+.>.u 4 O.e.e.i.~.^.!.e.e.s 2 4 %.3.{.oXXX] O z x.D.S.H x ",
"H.V.N.N.M.f ' oX*XoX .2 8 =.| {.5 o t ,.,.O.4 o [ ].o.O.o ` @X&X}.} O n L.S.x h ",
"H.L.H.D.h.M '.+X*X}.} 2 y 0.3.=.| ] .. X X{.} ] o.;.7.7.O ` '.@X&X}.| V L.m.x h ",
"J.H.L.L.: [ .X-X$X7 o   @.7XdX1X3.O.=.2.2.2.=.=.q.7XfX,X+ o o =.-X#X].6 n.H.L x ",
"H.H.L.L.* { -X<X>.;.6.0 @.gXcXzXdXdX4Xq.9.,X7X8XgXcXcX1X@ ;.5.&.q.1X7.@ H J.J S ",
"F.F.H.V.j 3.2X,X8.1XgX=Xu %XxXhXdXlX6X4X7X5XdXkXfXzXdX;.$.6X7X%X9.1X,X{ S V.B.I ",
"B.m.m.c.W q.,X9.2XfXxX7Xu { lXhXfXhX2Xp.<X8.7XhXgXzX1X# q.zXzX6X,Xq.1X<.m m.B.P.",
"B.m.c.x.W <.4.4.4XzXcX8X$., <X7XzXzXW.t.r._ 5XzXgX4X4.# %XzXcXgXY.<.8.W H m.H.I.",
"I m.H x.x.! W <.Y.2XfX4X=.O y 7 q.1.r.T.T.t.T q.=.8 0 4 %XfX7X,X1.W ! n.l.B.B.J.",
"m.I H m x.x.v.N.! <.<.r 5 ..].] 4 O . * % $   # '  .].] 4 *.<.<.W g.f.x.J c.B.P.",
"H.B.c.m s.d.C.N.N.n.m c : 5 '.}.+X|.X.'...X.X..XOX[.} O g m n.x.x.g.g.x.J I B.G.",
"J.F.c.H H v.b.Z.Z.j.g.j.f o } XX:X:X@XXX].oX&X>X@X[.` . v v.j.j.C.j.s.H I P P P ",
"I.J.V.c.c.c.b.v.v.v.d.v.d 2 [.@X>X:XOX} ` [.@X>X*X X5   n g.j.Z.Z.j.d.c.P ) P ) ",
"P.J.J.J.V.b.b.x.d.g.g.g.z 6 X.;XjX;X..4 - ' |.sXsX+.  : m j.j.Z.Z.C.b.V.A.A.) ) ",
"P G.I.I.J.V.c.x.x.x.M.x.j.g - ,XlX7X@.= c @ %XkXdX-.. f.g.g.Z.Z.k.C.b.V.A.U.U.) ",
"P P I.I.I.B.c.x.x.b.b.x.b.g 8 fXdXlX7.= z , 8XfXlX%X. n.j.Z.k.j.k.C.b.J.U.U.U.T."
};
